<svg width="300" height="281" viewBox="0 0 300 281" fill="none" xmlns="http://www.w3.org/2000/svg">
<g clip-path="url(#clip0_1164:3251)">
<path d="M20.4398 263.279C18.9976 263.279 17.5524 263.348 16.1411 263.486L15.9357 263.506C6.57423 264.462 -0.273237 270.005 0.00837928 276.402L0.06282 277.558C0.0987267 278.289 0.136978 279.075 0.168461 279.947C0.185513 280.377 0.693739 280.707 1.32613 280.707H231.595C247.83 280.594 264.007 280.45 279.672 280.282C282.612 280.289 285.55 280.113 288.468 279.755C292.821 279.16 295.843 277.981 297.706 276.15H297.707C300.024 273.879 300.097 271.02 299.957 267.79C299.671 261.266 299.388 254.414 299.106 247.582C298.856 241.561 298.608 235.556 298.36 229.806C298.206 226.395 297.865 223.383 295.233 221.081C292.381 218.592 287.18 217.33 279.773 217.33C279.683 217.33 279.594 217.33 279.504 217.331C256.291 217.426 233.291 226.642 222.272 240.264C221.003 241.832 219.821 243.511 218.677 245.136C217.006 247.629 215.161 250.001 213.156 252.234C212.043 253.438 210.822 254.537 209.509 255.517C209.419 255.588 209.317 255.665 209.209 255.737C208.961 255.924 208.702 256.104 208.449 256.264C206.989 257.24 205.43 258.058 203.798 258.705L203.635 258.769C203.512 258.819 203.379 258.87 203.246 258.916C202.306 259.264 201.347 259.56 200.374 259.803C196.173 260.872 191.397 261.128 186.178 260.564C181.358 260.025 176.619 258.91 172.063 257.242C167.23 255.479 162.706 253.28 158.332 251.154C156.41 250.219 154.423 249.254 152.438 248.338C152.065 248.166 151.698 247.998 151.325 247.829C148.901 246.738 146.703 245.837 144.606 245.075C139.455 243.188 134.065 242.035 128.594 241.65C122.821 241.286 117.733 241.974 113.476 243.692C112.294 244.168 111.151 244.737 110.057 245.393C105.015 248.416 101.906 252.878 98.9007 257.193C95.1617 262.561 91.2952 268.111 83.6606 270.989C74.8509 274.312 61.9917 272.931 52.8939 270.53C50.0336 269.775 47.1767 268.907 44.4138 268.067C43.2979 267.727 42.1812 267.39 41.0638 267.055C38.8679 266.401 37.0708 265.899 35.4081 265.476L34.8823 265.341C34.5898 265.267 34.297 265.194 33.9989 265.124C32.024 264.645 30.1851 264.269 28.3741 263.972L27.9456 263.9C27.0867 263.769 26.2836 263.661 25.4955 263.569L25.181 263.533C23.6063 263.362 22.0236 263.278 20.4398 263.279V263.279Z" fill="#D9DBE9"/>
<path d="M145.84 138.335C145.146 138.435 144.439 138.382 143.769 138.179C143.098 137.976 142.48 137.628 141.958 137.159C141.436 136.691 141.023 136.113 140.747 135.467C140.472 134.821 140.341 134.122 140.364 133.42L124.467 127.292L131.665 122.128L145.657 128.739C146.831 128.855 147.921 129.4 148.722 130.27C149.522 131.139 149.976 132.273 149.999 133.456C150.021 134.639 149.61 135.789 148.844 136.688C148.077 137.588 147.008 138.174 145.839 138.335L145.84 138.335Z" fill="#FFB7B7"/>
<path d="M136.755 133.939L139.237 125.158L139.115 125.074L115.865 109.233L95.7671 89.0067L84.0596 93.6982L84.8283 97.4149L84.8785 97.4605L111.6 121.466L111.625 121.479L136.755 133.939Z" fill="#3F3D56"/>
<path d="M112.937 153.998L76.9551 148.939L80.1218 126.794H106.612L112.937 153.998Z" fill="#FFB6B6"/>
<path d="M51.7979 262.436L59.1791 264.157L69.3076 236.42L58.4139 233.881L51.7979 262.436Z" fill="#FFB6B6"/>
<path d="M44.9307 274.355L50.2239 275.589L52.33 270.797L53.5885 276.373L67.6275 279.646C68.3004 279.802 69.0057 279.739 69.6405 279.466C70.2752 279.192 70.8061 278.722 71.1557 278.124C71.5052 277.527 71.6551 276.833 71.5835 276.143C71.5119 275.454 71.2225 274.806 70.7576 274.293L61.3458 263.914L62.5199 258.847L50.5642 256.804L44.9307 274.355Z" fill="#2F2E41"/>
<path d="M97.3418 266.562H104.92L108.526 237.246H97.3418V266.562Z" fill="#FFB6B6"/>
<path d="M93.3418 279.731H98.7761L99.746 274.585L102.23 279.731H116.643C117.334 279.731 118.007 279.509 118.564 279.099C119.12 278.688 119.531 278.11 119.737 277.448C119.942 276.787 119.932 276.076 119.706 275.421C119.481 274.766 119.053 274.201 118.484 273.807L106.975 265.834V260.632L94.8683 261.356L93.3418 279.731Z" fill="#2F2E41"/>
<path d="M76.5004 145.181L111.689 142.374C122.073 166.703 115.471 205.542 107.491 249.263L96.1724 250.731L95.2945 180.476L66.9213 245.834L55.125 245.23L76.5004 145.181Z" fill="#2F2E41"/>
<path d="M96.9832 81.1156V69.1749C96.9832 64.9314 95.3025 60.8616 92.3108 57.861C89.3191 54.8604 85.2616 53.1747 81.0307 53.1747C76.7999 53.1747 72.7423 54.8604 69.7507 57.861C66.759 60.8616 65.0783 64.9314 65.0783 69.1749C62.2667 75.0514 64.0257 77.8453 65.0783 81.1156C65.0793 81.685 65.3052 82.2309 65.7067 82.6336C66.1082 83.0363 66.6524 83.2629 67.2202 83.2639H94.8402C95.4082 83.2632 95.9527 83.0367 96.3544 82.634C96.7561 82.2313 96.9822 81.6852 96.9832 81.1156Z" fill="#2F2E41"/>
<path d="M84.9674 83.0838C91.4268 83.0838 96.6632 77.8317 96.6632 71.3529C96.6632 64.8741 91.4268 59.6219 84.9674 59.6219C78.5079 59.6219 73.2715 64.8741 73.2715 71.3529C73.2715 77.8317 78.5079 83.0838 84.9674 83.0838Z" fill="#FFB7B7"/>
<path d="M100.758 70.1298C100.754 66.7742 99.4232 63.5571 97.0575 61.1844C94.6918 58.8116 91.4843 57.4769 88.1387 57.4731H85.7577C82.4121 57.4769 79.2046 58.8115 76.8389 61.1843C74.4732 63.5571 73.1424 66.7742 73.1387 70.1298V70.3688C74.922 71.5915 76.6148 71.7703 78.1706 70.3688L79.8867 65.5488L80.2299 70.3687H82.8308L83.6978 67.937L83.8712 70.3688C87.3841 73.3695 94.0269 71.9315 100.758 70.3688V70.1298Z" fill="#2F2E41"/>
<path d="M78.1473 133.266L107.926 132.13L109.591 112.59C110.874 109.014 110.895 105.941 109.652 103.463C108.583 101.426 106.787 99.8693 104.623 99.1033L98.1074 91.2097C97.2692 90.1951 96.2167 89.38 95.026 88.8232C93.8354 88.2665 92.5363 87.9819 91.2226 87.9902L74.2913 88.1063C73.8833 87.8603 71.4079 86.5984 66.5258 88.7201C61.2307 91.0219 62.4603 99.0188 62.4735 99.0991L62.4858 99.1743L62.5439 99.2255L73.8053 108.74L78.1473 133.266Z" fill="#3F3D56"/>
<path d="M213.851 98.9113C194.635 120.632 136.819 124.775 99.1862 164.645C86.5693 126.107 104.443 59.5822 122.255 34.2129C130.809 22.0301 143.838 13.7545 158.475 11.2067C173.113 8.65881 188.16 12.0474 200.306 20.6269C225.599 38.4929 234.384 75.7022 213.851 98.9113Z" fill="#BCA4FF"/>
<path d="M167.292 78.0741C177.381 78.0741 185.56 69.8706 185.56 59.751C185.56 49.6315 177.381 41.4279 167.292 41.4279C157.202 41.4279 149.023 49.6315 149.023 59.751C149.023 69.8706 157.202 78.0741 167.292 78.0741Z" fill="white"/>
<path d="M83.7437 184.6C90.352 184.6 95.7091 179.227 95.7091 172.599C95.7091 165.971 90.352 160.598 83.7437 160.598C77.1354 160.598 71.7783 165.971 71.7783 172.599C71.7783 179.227 77.1354 184.6 83.7437 184.6Z" fill="#BCA4FF"/>
<path d="M70.0553 171.731C69.5342 171.261 69.122 170.683 68.8478 170.036C68.5736 169.39 68.4439 168.691 68.468 167.989C68.4921 167.287 68.6692 166.598 68.9871 165.972C69.3049 165.346 69.7557 164.798 70.3077 164.365L64.8086 148.199L73.3763 150.431L77.2807 165.44C77.9441 166.418 78.2264 167.607 78.0741 168.781C77.9218 169.954 77.3454 171.031 76.4543 171.807C75.5632 172.582 74.4193 173.003 73.2395 172.989C72.0597 172.975 70.9259 172.528 70.0533 171.731L70.0553 171.731Z" fill="#FFB7B7"/>
<path d="M67.5976 161.92L75.9103 158.205L73.1176 130.004L75.7185 101.567L64.6199 95.559L62.2683 98.5329V98.6004L61.0225 134.559L61.0291 134.587L67.5976 161.92Z" fill="#3F3D56"/>
<path d="M265.803 215.41C265.222 217.596 263.695 219.417 261.852 220.743C261.552 220.96 261.243 221.161 260.931 221.35C260.835 221.406 260.738 221.466 260.638 221.519C260.53 221.583 260.422 221.643 260.314 221.699H251.647C251.491 221.382 251.339 221.06 251.187 220.743C247.473 212.915 244.864 204.468 245.309 195.864C245.486 192.527 246.185 189.238 247.381 186.119C249.76 179.902 254.104 174.522 260.077 171.813C260.226 171.745 260.382 171.676 260.534 171.612C260.486 171.785 260.438 171.954 260.39 172.126C259.749 174.442 259.296 176.806 259.036 179.195C259.012 179.38 258.991 179.565 258.975 179.754C258.406 185.515 258.912 191.333 260.466 196.909C260.47 196.921 260.474 196.937 260.478 196.949C260.818 198.183 261.214 199.398 261.664 200.594C262.016 201.538 262.397 202.471 262.814 203.387C264.553 207.233 266.884 211.332 265.803 215.41Z" fill="#F7F7FC"/>
<path d="M260.642 171.793C260.558 171.905 260.474 172.014 260.39 172.126C258.63 174.466 257.135 176.994 255.934 179.665C255.87 179.798 255.81 179.931 255.758 180.067C254.112 183.797 253.055 187.761 252.625 191.817C252.62 191.845 252.618 191.874 252.617 191.902C252.517 192.85 252.457 193.807 252.433 194.763C252.343 196.556 252.537 198.351 253.005 200.084C253.433 201.498 254.182 202.794 255.193 203.869C255.293 203.978 255.393 204.086 255.502 204.191C255.582 204.275 255.67 204.359 255.754 204.44C256.563 205.215 257.449 205.935 258.21 206.766C258.559 207.139 258.874 207.543 259.152 207.972C259.594 208.691 259.881 209.496 259.991 210.334C260.102 211.172 260.034 212.024 259.793 212.834C259.248 214.868 258.002 216.584 256.728 218.219C256.091 219.039 255.433 219.867 254.865 220.743C254.656 221.056 254.464 221.374 254.288 221.699H253.783C253.951 221.374 254.135 221.056 254.336 220.743C255.798 218.432 257.877 216.447 258.955 213.903C259.684 212.187 259.905 210.242 258.983 208.559C258.713 208.069 258.386 207.613 258.01 207.2C257.277 206.369 256.399 205.657 255.602 204.906C255.401 204.717 255.205 204.524 255.017 204.323C254.018 203.306 253.248 202.086 252.757 200.747C252.201 199.045 251.938 197.261 251.98 195.47C251.98 194.329 252.04 193.18 252.152 192.038C252.164 191.894 252.18 191.745 252.196 191.596C253.016 184.415 255.737 177.584 260.077 171.813C260.157 171.701 260.241 171.592 260.326 171.484C260.498 171.258 260.814 171.572 260.642 171.793Z" fill="white"/>
<path d="M252.358 192.076C250.97 191.843 249.711 191.122 248.804 190.042C247.897 188.963 247.403 187.596 247.408 186.184C247.409 186.127 247.432 186.072 247.472 186.031C247.513 185.99 247.567 185.966 247.625 185.965C247.682 185.964 247.738 185.985 247.78 186.024C247.822 186.063 247.848 186.117 247.851 186.174C247.843 187.489 248.304 188.763 249.15 189.766C249.997 190.769 251.173 191.436 252.466 191.646C252.747 191.692 252.637 192.122 252.358 192.077V192.076Z" fill="white"/>
<path d="M255.081 203.95C257.439 202.297 259.089 199.813 259.702 196.995C259.763 196.715 260.192 196.824 260.131 197.103C259.488 200.035 257.766 202.616 255.308 204.331C255.074 204.494 254.848 204.112 255.081 203.95H255.081Z" fill="white"/>
<path d="M255.801 179.618C256.319 179.821 256.88 179.891 257.432 179.823C257.984 179.755 258.51 179.55 258.964 179.228C259.196 179.062 259.421 179.444 259.191 179.609C258.688 179.963 258.106 180.188 257.496 180.265C256.887 180.342 256.268 180.267 255.693 180.049C255.637 180.033 255.589 179.996 255.56 179.946C255.53 179.896 255.52 179.836 255.533 179.779C255.547 179.722 255.584 179.673 255.634 179.643C255.684 179.613 255.744 179.604 255.801 179.618Z" fill="white"/>
<path d="M290.699 187.333C290.559 187.441 290.415 187.55 290.275 187.662C288.372 189.122 286.592 190.735 284.95 192.485C284.822 192.617 284.693 192.754 284.569 192.89L284.565 192.894C280.672 197.133 277.594 202.057 275.486 207.417L275.474 207.454C275.47 207.466 275.466 207.474 275.462 207.486C274.627 209.632 273.953 211.837 273.447 214.084C272.958 216.278 272.558 218.629 271.792 220.743C271.676 221.069 271.548 221.39 271.412 221.699H253.599C253.659 221.382 253.723 221.06 253.787 220.743C254.693 216.087 256.109 211.545 258.01 207.2C258.074 207.056 258.138 206.911 258.21 206.766C259.191 204.62 260.345 202.557 261.66 200.598C261.66 200.597 261.66 200.597 261.66 200.596C261.66 200.596 261.661 200.595 261.661 200.595C261.661 200.595 261.662 200.594 261.662 200.594C261.663 200.594 261.663 200.594 261.664 200.594C262.386 199.525 263.161 198.494 263.988 197.504C266.13 194.947 268.662 192.744 271.488 190.978C271.504 190.966 271.524 190.957 271.54 190.945C277.165 187.445 283.832 185.778 290.206 187.22H290.21C290.375 187.256 290.535 187.293 290.699 187.333Z" fill="#F7F7FC"/>
<path d="M290.679 187.546C290.543 187.582 290.407 187.622 290.274 187.662C287.466 188.467 284.756 189.582 282.193 190.986C282.065 191.054 281.937 191.126 281.809 191.199C278.267 193.181 275.051 195.701 272.277 198.669C272.275 198.671 272.273 198.674 272.273 198.677C272.241 198.709 272.205 198.745 272.177 198.778C271.536 199.469 270.919 200.188 270.334 200.928C269.19 202.306 268.268 203.856 267.601 205.521C267.092 206.908 266.912 208.396 267.076 209.865C267.088 210.013 267.108 210.158 267.129 210.307C267.145 210.423 267.161 210.54 267.181 210.66C267.445 212.272 267.902 213.887 267.774 215.531C267.696 216.373 267.441 217.189 267.026 217.925C266.611 218.662 266.045 219.301 265.366 219.803C264.904 220.161 264.41 220.475 263.891 220.743C263.149 221.127 262.376 221.447 261.579 221.699H260.005C260.217 221.639 260.426 221.579 260.638 221.519C261.391 221.305 262.131 221.046 262.854 220.743C263.266 220.57 263.668 220.371 264.056 220.148C265.666 219.22 267.008 217.797 267.289 215.897C267.533 214.233 267.06 212.569 266.78 210.942C266.732 210.66 266.688 210.383 266.664 210.106C266.472 208.697 266.589 207.262 267.004 205.902C267.581 204.206 268.443 202.621 269.552 201.217C270.239 200.302 270.972 199.424 271.748 198.585C271.844 198.476 271.944 198.368 272.049 198.259C274.881 195.27 278.152 192.732 281.748 190.732H281.752C284.426 189.239 287.263 188.061 290.206 187.22H290.21C290.342 187.18 290.479 187.14 290.611 187.104C290.887 187.031 290.951 187.469 290.679 187.546Z" fill="white"/>
<path d="M271.89 198.737C270.922 197.713 270.349 196.376 270.273 194.967C270.197 193.557 270.623 192.167 271.475 191.043C271.648 190.817 272.007 191.076 271.834 191.303C271.039 192.348 270.642 193.643 270.716 194.955C270.789 196.267 271.328 197.51 272.235 198.459C272.432 198.665 272.086 198.942 271.89 198.737V198.737Z" fill="white"/>
<path d="M266.938 209.862C269.813 209.966 272.621 208.98 274.802 207.099C275.018 206.913 275.296 207.259 275.08 207.445C272.806 209.398 269.881 210.418 266.89 210.304C266.605 210.293 266.654 209.851 266.938 209.862V209.862Z" fill="white"/>
<path d="M282.117 190.87C282.409 191.344 282.814 191.739 283.296 192.018C283.778 192.297 284.321 192.451 284.877 192.468C285.162 192.475 285.112 192.916 284.829 192.909C284.215 192.888 283.615 192.717 283.083 192.41C282.55 192.103 282.1 191.669 281.773 191.148C281.738 191.101 281.722 191.043 281.728 190.985C281.734 190.927 281.762 190.874 281.806 190.836C281.852 190.799 281.91 190.782 281.969 190.789C282.027 190.795 282.08 190.824 282.117 190.87V190.87Z" fill="white"/>
<path d="M157.849 273.175C157.269 275.361 155.742 277.181 153.899 278.507C153.599 278.724 153.29 278.925 152.978 279.114C152.881 279.17 152.785 279.23 152.685 279.283C152.577 279.347 152.469 279.407 152.361 279.464H143.694C143.538 279.146 143.386 278.825 143.234 278.507C139.52 270.679 136.911 262.232 137.356 253.628C137.532 250.291 138.231 247.002 139.427 243.883C141.807 237.667 146.15 232.286 152.124 229.577C152.272 229.509 152.429 229.441 152.581 229.376C152.533 229.549 152.485 229.718 152.437 229.891C151.796 232.206 151.343 234.57 151.082 236.959C151.058 237.144 151.038 237.329 151.022 237.518C150.453 243.279 150.959 249.097 152.513 254.673C152.517 254.685 152.521 254.701 152.525 254.713C152.865 255.947 153.261 257.162 153.711 258.358C154.063 259.302 154.444 260.235 154.861 261.151C156.599 264.997 158.931 269.096 157.849 273.175Z" fill="#F7F7FC"/>
<path d="M152.689 229.557C152.605 229.67 152.521 229.778 152.436 229.891C150.677 232.23 149.182 234.758 147.981 237.429C147.917 237.562 147.857 237.695 147.805 237.831C146.159 241.561 145.102 245.526 144.672 249.582C144.667 249.609 144.664 249.638 144.664 249.666C144.564 250.614 144.503 251.571 144.479 252.527C144.39 254.32 144.584 256.115 145.052 257.848C145.48 259.262 146.229 260.558 147.24 261.633C147.34 261.742 147.44 261.85 147.548 261.955C147.629 262.039 147.717 262.124 147.801 262.204C148.61 262.979 149.496 263.699 150.257 264.531C150.606 264.904 150.921 265.307 151.198 265.736C151.641 266.455 151.927 267.261 152.038 268.099C152.148 268.937 152.081 269.789 151.839 270.599C151.295 272.632 150.049 274.348 148.774 275.984C148.137 276.803 147.48 277.631 146.911 278.507C146.703 278.821 146.511 279.138 146.334 279.464H145.83C145.998 279.138 146.182 278.821 146.383 278.507C147.845 276.197 149.924 274.211 151.002 271.668C151.731 269.952 151.952 268.007 151.03 266.323C150.76 265.833 150.433 265.377 150.057 264.965C149.323 264.133 148.446 263.422 147.649 262.67C147.448 262.481 147.252 262.288 147.064 262.087C146.065 261.07 145.295 259.851 144.804 258.511C144.248 256.809 143.985 255.025 144.027 253.234C144.027 252.093 144.087 250.944 144.199 249.803C144.211 249.658 144.227 249.509 144.243 249.361C145.062 242.179 147.784 235.348 152.124 229.577C152.204 229.465 152.288 229.356 152.372 229.248C152.545 229.023 152.861 229.336 152.689 229.557Z" fill="white"/>
<path d="M144.405 249.841C143.017 249.607 141.757 248.886 140.851 247.807C139.944 246.727 139.449 245.36 139.455 243.948C139.456 243.891 139.479 243.836 139.519 243.795C139.56 243.754 139.614 243.73 139.672 243.729C139.729 243.728 139.785 243.749 139.827 243.788C139.869 243.827 139.894 243.881 139.898 243.939C139.89 245.253 140.351 246.527 141.197 247.53C142.044 248.533 143.22 249.2 144.513 249.41C144.794 249.456 144.684 249.886 144.405 249.841V249.841Z" fill="white"/>
<path d="M147.129 261.714C149.487 260.061 151.137 257.578 151.75 254.759C151.811 254.479 152.24 254.588 152.179 254.867C151.536 257.8 149.813 260.38 147.356 262.095C147.122 262.258 146.896 261.876 147.129 261.714V261.714Z" fill="white"/>
<path d="M147.849 237.383C148.367 237.585 148.928 237.656 149.48 237.587C150.032 237.519 150.558 237.315 151.012 236.992C151.244 236.826 151.469 237.208 151.239 237.373C150.736 237.727 150.154 237.953 149.544 238.029C148.935 238.106 148.315 238.032 147.741 237.813C147.685 237.797 147.637 237.76 147.608 237.71C147.578 237.66 147.568 237.6 147.58 237.543C147.595 237.486 147.632 237.438 147.682 237.408C147.732 237.377 147.792 237.368 147.849 237.383V237.383Z" fill="white"/>
<path d="M182.746 245.097C182.606 245.205 182.462 245.314 182.321 245.426C180.419 246.887 178.638 248.499 176.997 250.249C176.868 250.381 176.74 250.518 176.616 250.655L176.612 250.659C172.719 254.897 169.641 259.821 167.533 265.182L167.521 265.218C167.517 265.23 167.513 265.238 167.509 265.25C166.674 267.396 166 269.601 165.494 271.848C165.005 274.043 164.604 276.393 163.839 278.507C163.723 278.833 163.595 279.154 163.459 279.464H145.646C145.706 279.146 145.77 278.825 145.834 278.507C146.74 273.851 148.156 269.309 150.057 264.965C150.121 264.82 150.185 264.675 150.257 264.531C151.238 262.384 152.392 260.321 153.707 258.362C153.707 258.362 153.707 258.361 153.707 258.361C153.707 258.36 153.707 258.36 153.708 258.359C153.708 258.359 153.709 258.359 153.709 258.358C153.71 258.358 153.71 258.358 153.711 258.358C154.433 257.289 155.208 256.258 156.034 255.268C158.177 252.711 160.708 250.508 163.535 248.742C163.551 248.73 163.571 248.722 163.587 248.71C169.212 245.209 175.879 243.542 182.253 244.984H182.257C182.422 245.021 182.582 245.057 182.746 245.097Z" fill="#F7F7FC"/>
<path d="M182.726 245.31C182.59 245.346 182.453 245.386 182.321 245.426C179.513 246.231 176.803 247.346 174.24 248.75C174.112 248.818 173.984 248.89 173.855 248.963C170.313 250.945 167.098 253.465 164.324 256.433C164.322 256.435 164.32 256.438 164.32 256.441C164.288 256.473 164.252 256.51 164.224 256.542C163.583 257.233 162.966 257.952 162.381 258.692C161.236 260.07 160.314 261.62 159.648 263.285C159.139 264.672 158.959 266.16 159.123 267.629C159.135 267.778 159.155 267.922 159.175 268.071C159.191 268.187 159.207 268.304 159.227 268.425C159.492 270.036 159.949 271.651 159.82 273.295C159.742 274.137 159.488 274.953 159.073 275.69C158.658 276.426 158.092 277.066 157.413 277.567C156.951 277.925 156.457 278.24 155.938 278.507C155.196 278.891 154.422 279.211 153.626 279.464H152.052C152.264 279.403 152.472 279.343 152.685 279.283C153.438 279.069 154.178 278.81 154.9 278.507C155.313 278.334 155.714 278.135 156.102 277.912C157.713 276.984 159.055 275.562 159.336 273.661C159.58 271.997 159.107 270.333 158.827 268.706C158.779 268.425 158.735 268.147 158.711 267.87C158.519 266.461 158.636 265.026 159.051 263.667C159.628 261.97 160.49 260.386 161.599 258.981C162.286 258.067 163.019 257.188 163.795 256.349C163.891 256.24 163.991 256.132 164.095 256.023C166.928 253.034 170.199 250.496 173.795 248.497H173.799C176.473 247.004 179.31 245.825 182.253 244.984H182.257C182.389 244.944 182.526 244.904 182.658 244.868C182.934 244.795 182.998 245.233 182.726 245.31Z" fill="white"/>
<path d="M163.937 256.501C162.969 255.477 162.396 254.14 162.32 252.731C162.244 251.322 162.67 249.931 163.522 248.808C163.695 248.581 164.054 248.84 163.881 249.067C163.086 250.112 162.689 251.407 162.763 252.719C162.836 254.032 163.375 255.274 164.282 256.223C164.479 256.429 164.133 256.707 163.937 256.501V256.501Z" fill="white"/>
<path d="M158.986 267.627C161.86 267.731 164.669 266.744 166.85 264.863C167.066 264.677 167.343 265.023 167.128 265.209C164.854 267.162 161.929 268.183 158.938 268.068C158.653 268.057 158.702 267.615 158.986 267.627V267.627Z" fill="white"/>
<path d="M174.165 248.634C174.457 249.109 174.862 249.503 175.344 249.782C175.826 250.061 176.369 250.215 176.925 250.232C177.21 250.239 177.16 250.68 176.877 250.673C176.263 250.652 175.663 250.481 175.13 250.174C174.598 249.867 174.148 249.434 173.82 248.912C173.785 248.865 173.769 248.807 173.776 248.749C173.782 248.691 173.81 248.638 173.854 248.6C173.9 248.563 173.958 248.546 174.017 248.553C174.075 248.559 174.128 248.588 174.165 248.634V248.634Z" fill="white"/>
<path d="M177.115 163.756C179.771 163.756 181.923 161.597 181.923 158.934C181.923 156.27 179.771 154.111 177.115 154.111C174.46 154.111 172.308 156.27 172.308 158.934C172.308 161.597 174.46 163.756 177.115 163.756Z" fill="#6E7191"/>
<path d="M236.842 105.993C239.497 105.993 241.65 103.834 241.65 101.17C241.65 98.507 239.497 96.348 236.842 96.348C234.187 96.348 232.034 98.507 232.034 101.17C232.034 103.834 234.187 105.993 236.842 105.993Z" fill="#6E7191"/>
<path d="M71.7747 9.64453C74.43 9.64453 76.5825 7.48553 76.5825 4.82227C76.5825 2.159 74.43 0 71.7747 0C69.1193 0 66.9668 2.159 66.9668 4.82227C66.9668 7.48553 69.1193 9.64453 71.7747 9.64453Z" fill="#6E7191"/>
<path opacity="0.2" d="M183.097 50.9787C185.287 54.7341 186.074 59.1487 185.315 63.4324C184.556 67.7161 182.303 71.5892 178.957 74.3585C175.612 77.1278 171.393 78.6126 167.056 78.547C162.718 78.4814 158.546 76.8698 155.285 74.0006C156.62 76.2938 158.436 78.2685 160.607 79.788C162.778 81.3076 165.253 82.3356 167.859 82.801C170.466 83.2664 173.142 83.158 175.703 82.4833C178.263 81.8086 180.647 80.5837 182.689 78.8935C184.731 77.2033 186.382 75.0882 187.528 72.6945C188.674 70.3009 189.288 67.6859 189.327 65.0308C189.366 62.3757 188.829 59.7438 187.753 57.3175C186.677 54.8911 185.089 52.7283 183.097 50.9787V50.9787Z" fill="#231F20"/>
<path opacity="0.2" d="M205.526 25.9846C220.523 45.4328 223.11 73.3834 206.493 92.1662C187.927 113.152 133.329 117.733 95.7148 153.979C96.3411 157.759 97.2452 161.487 98.4198 165.133C136.053 125.263 193.869 121.12 213.085 99.3996C231.901 78.1307 226.094 45.1072 205.526 25.9846Z" fill="#231F20"/>
</g>
<defs>
<clipPath id="clip0_1164:3251">
<rect width="300" height="280.707" fill="white"/>
</clipPath>
</defs>
</svg>
