<svg width="302" height="268" viewBox="0 0 302 268" fill="none" xmlns="http://www.w3.org/2000/svg">
<path opacity="0.2" fill-rule="evenodd" clip-rule="evenodd" d="M168.598 1.42189C198.516 8.31 206.655 46.7741 227.885 68.9597C243.905 85.7 268.84 93.6993 277.479 115.202C286.38 137.358 282.959 162.688 274.513 185.022C266.345 206.625 250.581 224.213 231.399 237.067C212.779 249.544 190.634 251.911 168.598 255.996C140.804 261.148 112.524 274.418 86.2574 263.971C57.1908 252.41 28.1061 228.828 22.77 197.995C17.4812 167.435 49.3481 144.392 60.5584 115.476C70.8255 88.9927 65.9729 56.7976 85.5037 36.1795C106.672 13.8326 138.607 -5.48286 168.598 1.42189Z" fill="#6E7191"/>
<path d="M185.318 235.19H185.818V234.69V181.843V181.343H185.318H53.0591L47.0589 168.842L46.8425 168.392L46.3918 168.608L45.4482 169.061L44.9974 169.277L45.2138 169.728L51.6351 183.106L51.7713 183.389H52.0859H183.771V233.144H39.8574H39.3574V233.644V234.69V235.19H39.8574H185.318Z" fill="#FCFCFC" stroke="#FCFCFC"/>
<path d="M59.2185 260.329C65.287 260.329 70.2065 255.409 70.2065 249.341C70.2065 243.272 65.287 238.353 59.2185 238.353C53.15 238.353 48.2305 243.272 48.2305 249.341C48.2305 255.409 53.15 260.329 59.2185 260.329Z" fill="#A0A3BD"/>
<path d="M167.528 260.329C173.597 260.329 178.516 255.409 178.516 249.341C178.516 243.272 173.597 238.353 167.528 238.353C161.46 238.353 156.54 243.272 156.54 249.341C156.54 255.409 161.46 260.329 167.528 260.329Z" fill="#A0A3BD"/>
<path d="M295.198 22.7779C298.954 22.7779 302 19.7325 302 15.9758C302 12.2191 298.954 9.17371 295.198 9.17371C291.441 9.17371 288.396 12.2191 288.396 15.9758C288.396 19.7325 291.441 22.7779 295.198 22.7779Z" fill="#A0A3BD"/>
<path d="M200.875 166.122H201.242L201.352 165.773L237.571 50.8171L237.571 50.817L237.785 50.1366L237.99 49.4865H237.309H2H1.32416L1.52188 50.1328L36.899 165.769L37.0073 166.122H37.3772H200.875ZM235.2 51.533L199.741 164.076H38.5212L4.09023 51.533H235.2Z" fill="#FCFCFC" stroke="#FCFCFC"/>
<path d="M240.112 40.139L240.595 40.2672L240.724 39.7839L247.324 14.9062H286.303H286.803V14.4062V13.3594V12.8594H286.303H246.134H245.749L245.651 13.2312L238.745 39.259L238.617 39.7423L239.1 39.8705L240.112 40.139Z" fill="#FCFCFC" stroke="#FCFCFC"/>
<path d="M13.4336 84.5435H12.9336V85.0435V86.09V86.59H13.4336H225.551H226.051V86.09V85.0435V84.5435H225.551H13.4336Z" fill="#FCFCFC" stroke="#FCFCFC"/>
<path d="M25.2285 123.098H24.7285V123.598V124.644V125.144H25.2285H213.404H213.904V124.644V123.598V123.098H213.404H25.2285Z" fill="#FCFCFC" stroke="#FCFCFC"/>
<path d="M119.128 50.0097H118.628V50.5097V165.099V165.599H119.128H120.174H120.674V165.099V50.5097V50.0097H120.174H119.128Z" fill="#FCFCFC" stroke="#FCFCFC"/>
<path d="M159.017 165.031L158.984 165.53L159.483 165.562L160.527 165.631L161.026 165.664L161.059 165.165L168.571 50.578L168.604 50.0791L168.105 50.0464L167.06 49.9779L166.561 49.9452L166.529 50.4442L159.017 165.031Z" fill="#FCFCFC" stroke="#FCFCFC"/>
<path d="M71.2204 50.0448L70.7215 50.0773L70.754 50.5762L78.2224 165.166L78.2549 165.665L78.7538 165.632L79.7983 165.564L80.2972 165.532L80.2647 165.033L72.7963 50.4431L72.7638 49.9442L72.2649 49.9767L71.2204 50.0448Z" fill="#FCFCFC" stroke="#FCFCFC"/>
</svg>
