<svg width="190" height="196" viewBox="0 0 190 196" fill="none" xmlns="http://www.w3.org/2000/svg">
<path fill-rule="evenodd" clip-rule="evenodd" d="M85.929 59.0708C108.355 59.5655 134.624 58.679 147.265 77.1714C159.458 95.0089 146.436 117.678 140.107 138.327C134.649 156.135 131.118 176.712 114.289 184.758C97.4855 192.792 79.3807 182.243 61.9408 175.697C40.8895 167.796 14.5293 164.985 6.13402 144.162C-3.22554 120.947 3.96261 92.6587 21.096 74.3881C37.0616 57.3629 62.5694 58.5555 85.929 59.0708Z" fill="#F4CB7A"/>
<path d="M2 163.759C13.8895 127.86 51.3818 56.4073 106.235 57.7924" stroke="#14142B" stroke-width="3"/>
<path d="M77.8387 194.926C52.2128 143.097 8.64884 39.231 39.3999 38.3999" stroke="#14142B" stroke-width="3"/>
<path d="M14.4668 174.494C63.1791 171.955 165.59 157.387 185.537 119.433" stroke="#14142B" stroke-width="3"/>
<path d="M189.001 152.331C119.395 152.1 -15.0369 132.385 4.07862 55.3684" stroke="#14142B" stroke-width="3"/>
<path d="M58.0996 1C63.1786 38.7462 93.6296 118.464 174.801 135.363" stroke="#14142B" stroke-width="3"/>
<path d="M139.5 177C147.5 180 144 188 137 188" stroke="#D9DBE9" stroke-width="3" stroke-linecap="round"/>
<path d="M147.5 177C155.5 180 154.5 188 147.5 188" stroke="#D9DBE9" stroke-width="3" stroke-linecap="round"/>
</svg>
