<svg width="300" height="251" viewBox="0 0 300 251" fill="none" xmlns="http://www.w3.org/2000/svg">
<g clip-path="url(#clip0_1305:3679)">
<path d="M123.614 58.9123H122.251V21.5971C122.251 18.7609 121.693 15.9525 120.607 13.3322C119.522 10.7119 117.931 8.33108 115.926 6.32561C113.92 4.32014 111.539 2.72931 108.919 1.64396C106.299 0.55861 103.491 -8.87302e-06 100.654 1.05708e-10H21.5971C18.7609 -8.87302e-06 15.9525 0.558609 13.3322 1.64396C10.712 2.72931 8.33111 4.32014 6.32563 6.32561C4.32016 8.33108 2.72932 10.7119 1.64397 13.3322C0.558615 15.9525 -4.43655e-06 18.7609 0 21.5971V226.311C-2.66192e-06 229.147 0.55862 231.956 1.64397 234.576C2.72933 237.196 4.32016 239.577 6.32564 241.583C8.33112 243.588 10.712 245.179 13.3322 246.264C15.9525 247.35 18.7609 247.908 21.5971 247.908H100.654C103.491 247.908 106.299 247.35 108.919 246.264C111.539 245.179 113.92 243.588 115.926 241.583C117.931 239.577 119.522 237.196 120.607 234.576C121.693 231.956 122.251 229.147 122.251 226.311V85.4738H123.614V58.9123Z" fill="#D9DBE9"/>
<path d="M101.525 5.6189H91.2058C91.6804 6.78239 91.8616 8.04474 91.7333 9.29474C91.6051 10.5447 91.1715 11.744 90.4706 12.7869C89.7697 13.8299 88.8231 14.6844 87.7141 15.2753C86.6052 15.8662 85.3679 16.1753 84.1113 16.1754H38.8204C37.5639 16.1753 36.3266 15.8662 35.2177 15.2753C34.1087 14.6844 33.1621 13.8299 32.4612 12.7869C31.7603 11.744 31.3267 10.5447 31.1984 9.29474C31.0702 8.04474 31.2514 6.78239 31.7259 5.6189H22.0874C19.9694 5.61889 17.8721 6.03606 15.9153 6.84659C13.9586 7.65712 12.1806 8.84513 10.6829 10.3428C9.18524 11.8404 7.99723 13.6184 7.1867 15.5752C6.37617 17.532 5.95899 19.6293 5.95898 21.7473V226.161C5.95898 228.279 6.37616 230.376 7.18669 232.333C7.99722 234.29 9.18523 236.068 10.6829 237.566C12.1806 239.063 13.9585 240.251 15.9153 241.062C17.8721 241.872 19.9694 242.289 22.0874 242.289H101.525C103.643 242.289 105.741 241.872 107.698 241.062C109.654 240.251 111.432 239.063 112.93 237.566C114.428 236.068 115.616 234.29 116.426 232.333C117.237 230.376 117.654 228.279 117.654 226.161V21.7473C117.654 19.6293 117.237 17.532 116.426 15.5752C115.616 13.6184 114.428 11.8404 112.93 10.3428C111.432 8.84513 109.654 7.65712 107.698 6.84659C105.741 6.03606 103.643 5.61889 101.525 5.6189V5.6189Z" fill="#FCFCFC"/>
<path d="M38.4031 47.1738H33.6601C33.4933 47.1738 33.3334 47.2401 33.2154 47.358C33.0975 47.4759 33.0313 47.6359 33.0312 47.8027V49.8845C33.0313 50.0513 33.0975 50.2112 33.2154 50.3291C33.3334 50.4471 33.4933 50.5133 33.6601 50.5133H34.4461V53.6326H37.6171V50.5133H38.4031C38.5699 50.5133 38.7298 50.4471 38.8477 50.3291C38.9656 50.2112 39.0319 50.0513 39.0319 49.8845V47.8027C39.0319 47.6359 38.9656 47.4759 38.8477 47.358C38.7298 47.2401 38.5699 47.1738 38.4031 47.1738V47.1738Z" fill="#D9DBE9"/>
<path d="M43.1536 66.2267C40.2489 61.9763 38.7639 56.9155 38.9115 51.7695C38.9141 51.6507 38.8756 51.5347 38.8024 51.4412C38.7292 51.3476 38.6259 51.2823 38.51 51.2562V50.3567H33.5008V51.2437H33.4318C33.2955 51.2439 33.1648 51.2982 33.0685 51.3948C32.9723 51.4913 32.9183 51.6221 32.9185 51.7584C32.9185 51.7709 32.9189 51.7834 32.9199 51.7958C33.3145 57.2969 31.9819 62.2302 28.9221 66.5957C28.746 66.8466 28.6561 67.1478 28.6657 67.4541L29.2135 84.3971C29.2266 84.7751 29.3853 85.1333 29.6562 85.397C29.9272 85.6608 30.2895 85.8097 30.6676 85.8127H41.9978C42.3802 85.8096 42.7463 85.6573 43.0181 85.3882C43.2899 85.1191 43.4459 84.7546 43.4528 84.3722L43.6639 67.9219C43.6701 67.3181 43.4922 66.7268 43.1536 66.2267Z" fill="#D9DBE9"/>
<path d="M41.3599 71.8547H31.4979C31.3519 71.8547 31.2076 71.8863 31.075 71.9473C30.9423 72.0082 30.8245 72.0972 30.7294 72.208C30.6343 72.3188 30.5644 72.4488 30.5243 72.5892C30.4842 72.7295 30.4749 72.8769 30.4971 73.0212L31.9874 82.7081H40.5449L42.355 73.0538C42.3825 72.9076 42.3773 72.7572 42.34 72.6131C42.3026 72.4691 42.234 72.3351 42.139 72.2206C42.044 72.1061 41.9249 72.014 41.7903 71.9508C41.6556 71.8875 41.5086 71.8547 41.3599 71.8547V71.8547Z" fill="white"/>
<path d="M91.2019 97.9287H86.4589C86.2921 97.9287 86.1322 97.995 86.0143 98.1129C85.8963 98.2308 85.8301 98.3908 85.8301 98.5575V100.639C85.8301 100.806 85.8963 100.966 86.0143 101.084C86.1322 101.202 86.2921 101.268 86.4589 101.268H87.2449V104.388H90.4159V101.268H91.2019C91.3687 101.268 91.5286 101.202 91.6466 101.084C91.7645 100.966 91.8307 100.806 91.8307 100.639V98.5575C91.8307 98.3908 91.7645 98.2308 91.6465 98.1129C91.5286 97.995 91.3687 97.9287 91.2019 97.9287Z" fill="#D9DBE9"/>
<path d="M95.9525 116.982C93.0477 112.731 91.5627 107.671 91.7103 102.525C91.7129 102.406 91.6744 102.29 91.6012 102.196C91.5281 102.103 91.4248 102.037 91.3089 102.011V101.112H86.2996V101.999H86.2306C86.1631 101.999 86.0963 102.012 86.034 102.038C85.9716 102.064 85.915 102.102 85.8674 102.15C85.8197 102.198 85.7819 102.254 85.7562 102.317C85.7304 102.379 85.7172 102.446 85.7173 102.514C85.7173 102.526 85.7178 102.538 85.7187 102.551C86.1133 108.052 84.7807 112.985 81.7209 117.351C81.5449 117.602 81.4549 117.903 81.4646 118.209L82.0123 135.152C82.0255 135.53 82.1841 135.888 82.455 136.152C82.726 136.416 83.0883 136.565 83.4665 136.568H94.7966C95.1791 136.565 95.5452 136.412 95.817 136.143C96.0887 135.874 96.2447 135.51 96.2517 135.127L96.4627 118.677C96.469 118.073 96.291 117.482 95.9525 116.982V116.982Z" fill="#D9DBE9"/>
<path d="M94.1587 122.61H84.2967C84.1507 122.61 84.0065 122.641 83.8738 122.702C83.7412 122.763 83.6233 122.852 83.5282 122.963C83.4332 123.074 83.3632 123.204 83.3231 123.344C83.283 123.485 83.2738 123.632 83.296 123.776L84.7862 133.463H93.3437L95.1539 123.809C95.1813 123.663 95.1761 123.512 95.1388 123.368C95.1014 123.224 95.0328 123.09 94.9378 122.976C94.8428 122.861 94.7237 122.769 94.5891 122.706C94.4544 122.643 94.3075 122.61 94.1587 122.61H94.1587Z" fill="white"/>
<path d="M31.7346 169.681H29.4848C29.4057 169.681 29.3298 169.713 29.2739 169.769C29.218 169.825 29.1865 169.901 29.1865 169.98V170.967C29.1865 171.046 29.218 171.122 29.2739 171.178C29.3298 171.234 29.4057 171.265 29.4848 171.265H29.8576V172.745H31.3618V171.265H31.7346C31.8137 171.265 31.8896 171.234 31.9455 171.178C32.0015 171.122 32.0329 171.046 32.0329 170.967V169.98C32.0329 169.901 32.0015 169.825 31.9455 169.769C31.8896 169.713 31.8137 169.681 31.7346 169.681Z" fill="#D9DBE9"/>
<path d="M33.9878 178.719C32.61 176.703 31.9056 174.302 31.9756 171.861C31.9768 171.805 31.9586 171.75 31.9238 171.706C31.8891 171.661 31.8401 171.63 31.7852 171.618V171.191H29.4091V171.612H29.3763C29.3443 171.612 29.3126 171.618 29.283 171.631C29.2535 171.643 29.2266 171.661 29.204 171.684C29.1814 171.706 29.1635 171.733 29.1513 171.763C29.139 171.792 29.1328 171.824 29.1328 171.856C29.1328 171.862 29.133 171.868 29.1335 171.874C29.3528 174.365 28.6808 176.852 27.2372 178.894C27.1537 179.013 27.111 179.156 27.1156 179.301L27.3754 187.338C27.3816 187.517 27.4568 187.687 27.5854 187.812C27.7139 187.937 27.8858 188.008 28.0651 188.01H33.4396C33.621 188.008 33.7946 187.936 33.9236 187.808C34.0525 187.681 34.1265 187.508 34.1298 187.326L34.2299 179.523C34.2328 179.237 34.1484 178.956 33.9878 178.719V178.719Z" fill="#D9DBE9"/>
<path d="M33.215 181.673H28.0869V184.237H33.215V181.673Z" fill="white"/>
<path d="M42.2083 169.681H39.9584C39.8793 169.681 39.8035 169.713 39.7475 169.769C39.6916 169.825 39.6602 169.901 39.6602 169.98V170.967C39.6602 171.046 39.6916 171.122 39.7475 171.178C39.8035 171.234 39.8793 171.265 39.9584 171.265H40.3313V172.745H41.8354V171.265H42.2083C42.2874 171.265 42.3632 171.234 42.4192 171.178C42.4751 171.122 42.5065 171.046 42.5065 170.967V169.98C42.5065 169.901 42.4751 169.825 42.4192 169.769C42.3632 169.713 42.2874 169.681 42.2083 169.681Z" fill="#D9DBE9"/>
<path d="M44.4605 178.719C43.0826 176.703 42.3783 174.302 42.4482 171.861C42.4495 171.805 42.4312 171.75 42.3965 171.706C42.3618 171.661 42.3128 171.63 42.2578 171.618V171.191H39.8817V171.612H39.849C39.817 171.612 39.7853 171.618 39.7557 171.631C39.7261 171.643 39.6993 171.661 39.6767 171.684C39.6541 171.706 39.6361 171.733 39.6239 171.763C39.6117 171.792 39.6054 171.824 39.6055 171.856C39.6055 171.862 39.6057 171.868 39.6062 171.874C39.8255 174.365 39.1535 176.852 37.7098 178.894C37.6263 179.013 37.5836 179.156 37.5882 179.301L37.848 187.338C37.8543 187.517 37.9295 187.687 38.058 187.812C38.1866 187.937 38.3584 188.008 38.5378 188.01H43.9122C44.0936 188.008 44.2673 187.936 44.3962 187.808C44.5251 187.681 44.5991 187.508 44.6024 187.326L44.7025 179.523C44.7055 179.237 44.6211 178.956 44.4605 178.719Z" fill="#D9DBE9"/>
<path d="M43.6876 181.673H38.5596V184.237H43.6876V181.673Z" fill="white"/>
<path d="M52.6809 169.681H50.4311C50.352 169.681 50.2761 169.713 50.2202 169.769C50.1642 169.825 50.1328 169.901 50.1328 169.98V170.967C50.1328 171.046 50.1642 171.122 50.2202 171.178C50.2761 171.234 50.352 171.265 50.4311 171.265H50.8039V172.745H52.3081V171.265H52.6809C52.76 171.265 52.8359 171.234 52.8918 171.178C52.9478 171.122 52.9792 171.046 52.9792 170.967V169.98C52.9792 169.901 52.9478 169.825 52.8918 169.769C52.8359 169.713 52.76 169.681 52.6809 169.681Z" fill="#D9DBE9"/>
<path d="M54.9341 178.719C53.5563 176.703 52.8519 174.302 52.9219 171.861C52.9231 171.805 52.9048 171.75 52.8701 171.706C52.8354 171.661 52.7864 171.63 52.7315 171.618V171.191H50.3553V171.612H50.3226C50.2906 171.612 50.2589 171.618 50.2293 171.631C50.1998 171.643 50.1729 171.661 50.1503 171.684C50.1277 171.706 50.1098 171.733 50.0975 171.763C50.0853 171.792 50.0791 171.824 50.0791 171.856C50.0791 171.862 50.0793 171.868 50.0798 171.874C50.2991 174.365 49.6271 176.852 48.1835 178.894C48.0999 179.013 48.0573 179.156 48.0619 179.301L48.3217 187.338C48.3279 187.517 48.4031 187.687 48.5317 187.812C48.6602 187.937 48.8321 188.008 49.0114 188.01H54.3858C54.5673 188.008 54.7409 187.936 54.8698 187.808C54.9988 187.681 55.0728 187.508 55.076 187.326L55.1762 179.523C55.1791 179.237 55.0947 178.956 54.9341 178.719Z" fill="#D9DBE9"/>
<path d="M54.1603 181.673H49.0322V184.237H54.1603V181.673Z" fill="white"/>
<path d="M82.9617 150.046H78.2187C78.1361 150.046 78.0543 150.063 77.978 150.094C77.9017 150.126 77.8324 150.172 77.774 150.231C77.7156 150.289 77.6693 150.358 77.6377 150.435C77.6061 150.511 77.5898 150.593 77.5898 150.675V152.757C77.5898 152.924 77.6561 153.084 77.774 153.202C77.892 153.32 78.0519 153.386 78.2187 153.386H79.0047V156.505H82.1757V153.386H82.9617C83.1284 153.386 83.2884 153.32 83.4063 153.202C83.5242 153.084 83.5905 152.924 83.5905 152.757V150.675C83.5905 150.593 83.5742 150.511 83.5426 150.435C83.511 150.358 83.4647 150.289 83.4063 150.231C83.3479 150.172 83.2786 150.126 83.2023 150.094C83.126 150.063 83.0442 150.046 82.9617 150.046V150.046Z" fill="#D9DBE9"/>
<path d="M87.7122 169.099C84.8075 164.849 83.3225 159.788 83.4701 154.642C83.4727 154.523 83.4342 154.407 83.361 154.314C83.2878 154.22 83.1845 154.155 83.0686 154.129V153.229H78.0594V154.116H77.9904C77.9229 154.116 77.8561 154.13 77.7937 154.156C77.7314 154.182 77.6748 154.22 77.6271 154.267C77.5795 154.315 77.5417 154.372 77.5159 154.434C77.4902 154.497 77.477 154.563 77.4771 154.631C77.4771 154.643 77.4775 154.656 77.4785 154.668C77.8731 160.169 76.5405 165.103 73.4807 169.468C73.3046 169.719 73.2147 170.02 73.2243 170.327L73.7721 187.27C73.7852 187.648 73.9438 188.006 74.2148 188.27C74.4858 188.533 74.8481 188.682 75.2262 188.685H86.5564C86.9388 188.682 87.3049 188.53 87.5767 188.261C87.8485 187.992 88.0045 187.627 88.0114 187.245L88.2225 170.794C88.2287 170.191 88.0507 169.599 87.7122 169.099Z" fill="#D9DBE9"/>
<path d="M85.9185 174.727H76.0565C75.9105 174.727 75.7662 174.759 75.6336 174.82C75.5009 174.881 75.383 174.97 75.288 175.081C75.1929 175.191 75.123 175.321 75.0829 175.462C75.0428 175.602 75.0335 175.749 75.0557 175.894L76.546 185.581H85.1035L86.9136 175.926C86.941 175.78 86.9359 175.63 86.8986 175.486C86.8612 175.342 86.7926 175.208 86.6976 175.093C86.6026 174.979 86.4835 174.887 86.3488 174.823C86.2142 174.76 86.0672 174.727 85.9185 174.727V174.727Z" fill="white"/>
<path d="M85.5512 87.994H57.2783C59.255 77.3071 58.8002 64.4022 57.2783 50.5239H85.5512C84.0698 64.4023 83.6271 77.3071 85.5512 87.994Z" fill="#D9DBE9"/>
<path d="M71.5852 75.0498C75.3478 75.0498 78.3979 71.9996 78.3979 68.2371C78.3979 64.4745 75.3478 61.4243 71.5852 61.4243C67.8226 61.4243 64.7725 64.4745 64.7725 68.2371C64.7725 71.9996 67.8226 75.0498 71.5852 75.0498Z" fill="white"/>
<path d="M59.6625 137.727H31.3896C33.3663 127.04 32.9116 114.135 31.3896 100.257H59.6625C58.1811 114.135 57.7384 127.04 59.6625 137.727Z" fill="#D9DBE9"/>
<path d="M45.6965 124.783C49.4591 124.783 52.5093 121.733 52.5093 117.97C52.5093 114.208 49.4591 111.157 45.6965 111.157C41.934 111.157 38.8838 114.208 38.8838 117.97C38.8838 121.733 41.934 124.783 45.6965 124.783Z" fill="white"/>
<path d="M101.561 90.3785H73.2881C75.2648 79.6916 74.81 66.7867 73.2881 52.9084H101.561C100.08 66.7868 99.6369 79.6916 101.561 90.3785Z" fill="#D9DBE9"/>
<path d="M87.595 77.4343C91.3575 77.4343 94.4077 74.3841 94.4077 70.6216C94.4077 66.859 91.3575 63.8088 87.595 63.8088C83.8324 63.8088 80.7822 66.859 80.7822 70.6216C80.7822 74.3841 83.8324 77.4343 87.595 77.4343Z" fill="white"/>
<path d="M101.561 88.6754H73.2881C75.2648 77.9885 74.81 65.0836 73.2881 51.2053H101.561C100.08 65.0836 99.6369 77.9885 101.561 88.6754Z" fill="#D9DBE9"/>
<path d="M87.595 75.7312C91.3575 75.7312 94.4077 72.681 94.4077 68.9184C94.4077 65.1559 91.3575 62.1057 87.595 62.1057C83.8324 62.1057 80.7822 65.1559 80.7822 68.9184C80.7822 72.681 83.8324 75.7312 87.595 75.7312Z" fill="white"/>
<path d="M101.561 90.3785H73.2881C75.2648 79.6916 74.81 66.7867 73.2881 52.9084H101.561C100.08 66.7868 99.6369 79.6916 101.561 90.3785Z" fill="#D9DBE9"/>
<path d="M87.595 77.4343C91.3575 77.4343 94.4077 74.3841 94.4077 70.6216C94.4077 66.859 91.3575 63.8088 87.595 63.8088C83.8324 63.8088 80.7822 66.859 80.7822 70.6216C80.7822 74.3841 83.8324 77.4343 87.595 77.4343Z" fill="white"/>
<path d="M108.033 85.9502H15.3799V96.1693H108.033V85.9502Z" fill="#D9DBE9"/>
<path d="M108.033 136.705H15.3799V146.924H108.033V136.705Z" fill="#D9DBE9"/>
<path d="M108.033 187.46H15.3799V197.679H108.033V187.46Z" fill="#D9DBE9"/>
<path d="M269.208 228.918L246.125 212.592C253.91 205.009 260.991 194.21 267.762 182.001L290.845 198.327C281.621 208.802 273.808 219.082 269.208 228.918Z" fill="#BCA4FF"/>
<path d="M269.214 211.537C272.977 211.537 276.027 208.486 276.027 204.724C276.027 200.961 272.977 197.911 269.214 197.911C265.452 197.911 262.401 200.961 262.401 204.724C262.401 208.486 265.452 211.537 269.214 211.537Z" fill="white"/>
<path d="M157.859 154.418H155.325C155.236 154.418 155.151 154.454 155.088 154.517C155.025 154.58 154.989 154.665 154.989 154.754V155.867C154.989 155.911 154.998 155.954 155.015 155.995C155.032 156.036 155.056 156.073 155.088 156.104C155.119 156.135 155.156 156.16 155.197 156.177C155.237 156.194 155.281 156.202 155.325 156.202H155.745V157.869H157.439V156.202H157.859C157.948 156.202 158.033 156.167 158.096 156.104C158.159 156.041 158.195 155.956 158.195 155.867V154.754C158.195 154.665 158.159 154.58 158.096 154.517C158.033 154.454 157.948 154.418 157.859 154.418V154.418Z" fill="#D9DBE9"/>
<path d="M160.396 164.597C158.845 162.326 158.051 159.622 158.13 156.873C158.131 156.81 158.111 156.748 158.072 156.698C158.033 156.648 157.977 156.613 157.916 156.599V156.119H155.24V156.593H155.203C155.167 156.593 155.131 156.6 155.098 156.614C155.064 156.627 155.034 156.648 155.009 156.673C154.983 156.699 154.963 156.729 154.949 156.762C154.936 156.796 154.928 156.831 154.928 156.867C154.928 156.874 154.929 156.881 154.929 156.887C155.176 159.693 154.419 162.494 152.794 164.794C152.7 164.928 152.651 165.089 152.657 165.252L152.949 174.304C152.956 174.505 153.041 174.697 153.186 174.838C153.331 174.979 153.524 175.058 153.726 175.06H159.779C159.983 175.058 160.179 174.977 160.324 174.833C160.469 174.689 160.552 174.495 160.556 174.29L160.669 165.502C160.672 165.18 160.577 164.864 160.396 164.597V164.597Z" fill="#BCA4FF"/>
<path opacity="0.2" d="M157.33 154.781C157.33 154.973 157.254 155.157 157.118 155.293C156.982 155.429 156.798 155.505 156.606 155.505C156.413 155.505 156.229 155.429 156.093 155.293C155.957 155.157 155.881 154.973 155.881 154.781" fill="black"/>
<path d="M159.218 166.341H154.108V169.747H159.218V166.341Z" fill="white"/>
<path d="M238.041 189.778H233.298C233.131 189.778 232.971 189.844 232.853 189.962C232.735 190.08 232.669 190.24 232.669 190.407V192.489C232.669 192.655 232.735 192.815 232.853 192.933C232.971 193.051 233.131 193.117 233.298 193.117H234.084V196.237H237.255V193.117H238.041C238.208 193.117 238.367 193.051 238.485 192.933C238.603 192.815 238.67 192.655 238.67 192.489V190.407C238.67 190.24 238.603 190.08 238.485 189.962C238.367 189.844 238.208 189.778 238.041 189.778V189.778Z" fill="#D9DBE9"/>
<path d="M242.791 208.83C239.887 204.58 238.402 199.519 238.549 194.373C238.552 194.254 238.513 194.138 238.44 194.045C238.367 193.951 238.264 193.886 238.148 193.86V192.96H233.138V193.848H233.069C233.002 193.848 232.935 193.861 232.873 193.887C232.811 193.913 232.754 193.951 232.706 193.999C232.659 194.046 232.621 194.103 232.595 194.165C232.569 194.228 232.556 194.295 232.556 194.362C232.556 194.375 232.557 194.387 232.558 194.4C232.952 199.901 231.62 204.834 228.56 209.199C228.384 209.45 228.294 209.752 228.303 210.058L228.851 227.001C228.864 227.379 229.023 227.737 229.294 228.001C229.565 228.265 229.927 228.413 230.305 228.416H241.635C242.018 228.413 242.384 228.261 242.656 227.992C242.928 227.723 243.084 227.358 243.091 226.976L243.302 210.526C243.308 209.922 243.13 209.331 242.791 208.83V208.83Z" fill="#BCA4FF"/>
<path opacity="0.2" d="M237.052 190.456C237.052 190.816 236.909 191.161 236.655 191.415C236.4 191.67 236.055 191.813 235.696 191.813C235.336 191.813 234.991 191.67 234.736 191.415C234.482 191.161 234.339 190.816 234.339 190.456" fill="black"/>
<path d="M240.999 214.459H231.137C230.991 214.459 230.846 214.49 230.714 214.551C230.581 214.612 230.463 214.701 230.368 214.812C230.273 214.923 230.203 215.053 230.163 215.193C230.123 215.334 230.114 215.481 230.136 215.625L231.626 225.312H240.184L241.994 215.658C242.021 215.512 242.016 215.361 241.979 215.217C241.941 215.073 241.873 214.939 241.778 214.825C241.683 214.71 241.564 214.618 241.429 214.555C241.294 214.492 241.147 214.459 240.999 214.459V214.459Z" fill="white"/>
<path d="M224.508 228.892H196.235C198.212 218.205 197.757 205.3 196.235 191.422H224.508C223.027 205.3 222.584 218.205 224.508 228.892Z" fill="#BCA4FF"/>
<path d="M210.542 215.948C214.305 215.948 217.355 212.898 217.355 209.135C217.355 205.372 214.305 202.322 210.542 202.322C206.78 202.322 203.729 205.372 203.729 209.135C203.729 212.898 206.78 215.948 210.542 215.948Z" fill="white"/>
<path d="M108.866 110.968L115.213 110.391L119.252 100.582L112.04 96.5432L108.866 110.968Z" fill="#FFB8B8"/>
<path d="M167.115 137.897C167.326 137.37 167.409 136.801 167.357 136.237C167.305 135.672 167.119 135.128 166.816 134.649C166.512 134.17 166.099 133.77 165.61 133.482C165.122 133.194 164.572 133.026 164.006 132.992L154.151 132.405L152.7 137.23L162.845 140.016C163.693 140.249 164.597 140.161 165.384 139.771C166.171 139.38 166.787 138.713 167.115 137.897V137.897Z" fill="#FFB8B8"/>
<path d="M156.533 140.097L156.425 131.043L134.535 127.55L117.672 108.21C116.795 107.204 115.582 106.549 114.26 106.369C112.937 106.188 111.593 106.492 110.478 107.226C109.803 107.67 109.233 108.258 108.81 108.946C108.387 109.635 108.12 110.408 108.028 111.211C107.936 112.014 108.022 112.828 108.279 113.594C108.536 114.36 108.959 115.061 109.517 115.646L123.429 132.767L156.533 140.097Z" fill="#575A89"/>
<path d="M103.961 241.948H109.731L124.043 177.241L138.87 197.23L147.525 240.506H153.006L151.852 194.057L132.523 144.435H113.482C108.278 153.852 104.196 163.559 108.865 173.573L103.961 241.948Z" fill="#2F2E41"/>
<path d="M143.987 245.879C143.924 246.083 143.904 246.298 143.93 246.51C143.956 246.723 144.027 246.927 144.138 247.11C144.249 247.293 144.398 247.45 144.574 247.57C144.751 247.691 144.951 247.773 145.162 247.81L159.281 250.316C159.839 250.418 160.415 250.313 160.9 250.019C161.386 249.726 161.747 249.265 161.916 248.724V248.724C162.081 248.206 162.058 247.648 161.851 247.146C161.645 246.644 161.268 246.23 160.787 245.979C157.683 244.385 155.011 242.062 153.001 239.209C151.449 240.654 149.714 240.518 147.873 239.453L145.919 239.697L143.987 245.879Z" fill="#2F2E41"/>
<path d="M101.29 245.879C101.226 246.083 101.207 246.298 101.233 246.51C101.259 246.723 101.33 246.927 101.441 247.11C101.552 247.293 101.701 247.45 101.877 247.57C102.054 247.691 102.254 247.773 102.464 247.81L116.584 250.316C117.142 250.418 117.718 250.313 118.203 250.019C118.689 249.726 119.05 249.265 119.219 248.724V248.724C119.384 248.206 119.361 247.648 119.154 247.146C118.948 246.644 118.571 246.23 118.09 245.979C114.985 244.385 112.314 242.062 110.303 239.209C108.752 240.654 107.017 240.518 105.175 239.453L103.222 239.697L101.29 245.879Z" fill="#2F2E41"/>
<path d="M119.396 104.189C123.858 104.189 127.474 100.572 127.474 96.1105C127.474 91.6491 123.858 88.0325 119.396 88.0325C114.935 88.0325 111.318 91.6491 111.318 96.1105C111.318 100.572 114.935 104.189 119.396 104.189Z" fill="#FFB8B8"/>
<path d="M112.184 146.598L133.244 146.021L127.059 126.555C130.903 120.393 127.035 114.238 121.56 108.083L117.233 105.198L110.309 104.621C107.311 107.829 105.67 112.073 105.731 116.463C105.868 125.864 107.533 136.097 112.184 146.598Z" fill="#575A89"/>
<path d="M160.571 159.701C160.972 159.3 161.272 158.81 161.446 158.27C161.621 157.731 161.664 157.157 161.574 156.598C161.483 156.038 161.26 155.508 160.925 155.051C160.589 154.594 160.149 154.223 159.642 153.969L150.813 149.552L147.581 153.418L155.812 159.97C156.5 160.518 157.365 160.793 158.243 160.743C159.12 160.694 159.949 160.323 160.571 159.701V159.701Z" fill="#FFB8B8"/>
<path d="M149.978 157.561L153.44 149.195L134.689 137.373L126.794 112.958C126.383 111.687 125.526 110.609 124.381 109.922C123.236 109.236 121.881 108.987 120.567 109.223V109.223C119.771 109.366 119.017 109.682 118.357 110.148C117.697 110.615 117.147 111.221 116.747 111.923C116.346 112.625 116.105 113.407 116.04 114.213C115.975 115.018 116.088 115.828 116.371 116.586L122.426 137.799L149.978 157.561Z" fill="#575A89"/>
<path d="M106.125 92.9369C106.125 96.0801 108.166 100.948 110.741 103.034C112.473 104.438 114.763 104.379 115.646 102.457C116.551 100.486 119.672 95.852 125.166 92.9369C132.49 89.0509 122.569 82.4026 115.646 83.4163C110.443 84.1781 106.125 87.6788 106.125 92.9369Z" fill="#2F2E41"/>
<path d="M111.03 88.6094C114.217 88.6094 116.8 86.0261 116.8 82.8394C116.8 79.6527 114.217 77.0693 111.03 77.0693C107.843 77.0693 105.26 79.6527 105.26 82.8394C105.26 86.0261 107.843 88.6094 111.03 88.6094Z" fill="#2F2E41"/>
<path d="M117.665 80.8198C117.665 79.3652 117.115 77.9645 116.125 76.8984C115.135 75.8324 113.779 75.1799 112.328 75.0717C112.471 75.061 112.615 75.0498 112.761 75.0498C114.291 75.0498 115.759 75.6577 116.841 76.7398C117.923 77.8219 118.531 79.2895 118.531 80.8198C118.531 82.3502 117.923 83.8178 116.841 84.8999C115.759 85.982 114.291 86.5899 112.761 86.5899C112.615 86.5899 112.471 86.5787 112.328 86.568C113.779 86.4598 115.135 85.8072 116.125 84.7412C117.114 83.6752 117.665 82.2745 117.665 80.8198Z" fill="#2F2E41"/>
<path d="M119.54 98.9955C120.257 98.9955 120.839 98.2205 120.839 97.2645C120.839 96.3084 120.257 95.5334 119.54 95.5334C118.823 95.5334 118.242 96.3084 118.242 97.2645C118.242 98.2205 118.823 98.9955 119.54 98.9955Z" fill="#FFB8B8"/>
<path d="M283.024 231.367H193.203L174.182 141.451H157.949V137.416H177.452L196.473 227.332H283.024V231.367Z" fill="#A0A3BD"/>
<path d="M206.364 247.793C211.139 247.793 215.01 243.922 215.01 239.147C215.01 234.373 211.139 230.502 206.364 230.502C201.59 230.502 197.719 234.373 197.719 239.147C197.719 243.922 201.59 247.793 206.364 247.793Z" fill="#A0A3BD"/>
<path d="M270.92 247.793C275.695 247.793 279.566 243.922 279.566 239.147C279.566 234.373 275.695 230.502 270.92 230.502C266.145 230.502 262.274 234.373 262.274 239.147C262.274 243.922 266.145 247.793 270.92 247.793Z" fill="#A0A3BD"/>
<path d="M281.386 229.467H193.995L178.575 153.267H295.856C296.455 153.267 297.046 153.396 297.589 153.647C298.133 153.897 298.616 154.262 299.005 154.717C299.394 155.172 299.68 155.706 299.843 156.281C300.006 156.857 300.042 157.461 299.949 158.053L285.479 225.967C285.329 226.944 284.834 227.835 284.083 228.477C283.331 229.119 282.374 229.471 281.386 229.467V229.467ZM194.944 228.314H281.386C282.099 228.317 282.79 228.063 283.332 227.6C283.874 227.136 284.232 226.493 284.339 225.788L298.81 157.874C298.877 157.447 298.851 157.011 298.733 156.595C298.616 156.18 298.409 155.794 298.129 155.466C297.848 155.138 297.499 154.874 297.107 154.694C296.715 154.513 296.288 154.419 295.856 154.419H179.974L194.944 228.314Z" fill="#A0A3BD"/>
<path d="M210.984 229.223L200.886 153.937L202.023 153.749L212.121 229.035L210.984 229.223Z" fill="#A0A3BD"/>
<path d="M267.132 228.645L265.994 228.46L275.797 153.751L276.935 153.935L267.132 228.645Z" fill="#A0A3BD"/>
<path d="M240.38 153.843H239.228V229.128H240.38V153.843Z" fill="#A0A3BD"/>
<path d="M184.464 174.016L184.461 175.169L296.047 175.439L296.05 174.287L184.464 174.016Z" fill="#A0A3BD"/>
<path d="M288.176 209.626L190.146 210.297L190.153 211.449L288.184 210.779L288.176 209.626Z" fill="#A0A3BD"/>
<path d="M159.678 142.315C163.18 142.315 166.018 140.767 166.018 138.857C166.018 136.947 163.18 135.399 159.678 135.399C156.177 135.399 153.338 136.947 153.338 138.857C153.338 140.767 156.177 142.315 159.678 142.315Z" fill="#A0A3BD"/>
</g>
<defs>
<clipPath id="clip0_1305:3679">
<rect width="300" height="250.354" fill="white"/>
</clipPath>
</defs>
</svg>
