<svg width="300" height="166" viewBox="0 0 300 166" fill="none" xmlns="http://www.w3.org/2000/svg">
<g clip-path="url(#clip0_1383_3233)">
<path d="M154.371 165.095C149.628 165.793 144.828 166.026 140.04 165.788C128.495 165.204 117.141 161.846 107.438 155.533C103.136 152.733 99.0317 149.294 96.8048 144.674C93.7823 138.399 94.8393 130.456 99.1555 124.991C100.73 123.02 102.666 121.368 104.861 120.124C105.186 119.94 105.518 119.763 105.854 119.593C109.511 117.754 113.618 117.002 117.689 117.426C124.61 118.183 130.998 122.411 134.688 128.318C137.976 133.585 139.121 139.799 139.797 146.028C139.924 147.201 140.033 148.378 140.139 149.548C139.551 152.938 138.626 156.261 137.379 159.467C137.315 159.624 137.263 159.784 137.223 159.948C137.93 161.482 138.603 163.03 139.241 164.593C139.841 164.919 140.514 165.089 141.196 165.088H154.343L154.371 165.095Z" fill="#EFF0F7"/>
<path d="M138.969 165.396C138.882 165.434 138.788 165.456 138.692 165.458C138.597 165.46 138.502 165.443 138.413 165.408C138.324 165.373 138.243 165.321 138.175 165.255C138.106 165.188 138.052 165.109 138.015 165.021C137.958 164.886 137.905 164.752 137.848 164.618C137.339 163.381 136.806 162.155 136.247 160.942C129.097 145.28 118.431 131.478 105.08 120.608C105.003 120.554 104.942 120.481 104.904 120.396C104.865 120.311 104.85 120.217 104.861 120.124C104.88 120.017 104.923 119.916 104.987 119.829C105.051 119.742 105.134 119.67 105.229 119.619C105.325 119.568 105.43 119.539 105.539 119.535C105.647 119.53 105.755 119.55 105.854 119.594C105.907 119.618 105.957 119.649 106.002 119.685C111.715 124.338 116.955 129.542 121.648 135.221C126.341 140.896 130.474 147.011 133.988 153.483C134.946 155.25 135.856 157.043 136.717 158.859C136.887 159.22 137.057 159.584 137.223 159.948C137.93 161.482 138.602 163.031 139.241 164.593C139.252 164.618 139.262 164.646 139.273 164.671C139.306 164.738 139.323 164.811 139.325 164.885C139.328 164.959 139.314 165.033 139.285 165.102C139.256 165.171 139.213 165.232 139.159 165.283C139.104 165.333 139.039 165.372 138.969 165.396Z" fill="white"/>
<path d="M92.086 118.773C99.6999 118.773 105.872 112.601 105.872 104.987C105.872 97.3732 99.6999 91.2009 92.086 91.2009C84.4721 91.2009 78.2998 97.3732 78.2998 104.987C78.2998 112.601 84.4721 118.773 92.086 118.773Z" fill="#5F2EEA"/>
<path d="M90.7191 110.246C90.4089 110.247 90.107 110.146 89.8588 109.96L89.8434 109.949L86.6036 107.468C86.4534 107.353 86.3274 107.21 86.2327 107.046C86.138 106.883 86.0764 106.702 86.0516 106.515C86.0267 106.327 86.039 106.137 86.0878 105.954C86.1366 105.771 86.2209 105.6 86.3359 105.45C86.4509 105.3 86.5943 105.174 86.758 105.079C86.9217 104.985 87.1024 104.923 87.2899 104.898C87.4773 104.874 87.6678 104.886 87.8505 104.935C88.0332 104.984 88.2044 105.068 88.3544 105.183L90.4529 106.792L95.4121 100.325C95.5271 100.175 95.6705 100.049 95.8342 99.9543C95.9979 99.8598 96.1785 99.7983 96.3659 99.7736C96.5533 99.7489 96.7438 99.7613 96.9264 99.8101C97.109 99.859 97.2802 99.9434 97.4302 100.058L97.3993 100.1L97.431 100.059C97.7335 100.292 97.9315 100.635 97.9815 101.013C98.0314 101.391 97.9292 101.774 97.6974 102.077L91.8642 109.684C91.7293 109.86 91.5558 110.002 91.3572 110.099C91.1586 110.196 90.9403 110.247 90.7191 110.246V110.246Z" fill="white"/>
<path d="M58.5191 48.0553C64.169 48.0553 68.7491 43.4751 68.7491 37.8253C68.7491 32.1754 64.169 27.5952 58.5191 27.5952C52.8692 27.5952 48.2891 32.1754 48.2891 37.8253C48.2891 43.4751 52.8692 48.0553 58.5191 48.0553Z" fill="#14142B"/>
<path d="M50.534 32.3096C52.1871 30.6565 52.5221 28.3113 51.2823 27.0714C50.0424 25.8316 47.6972 26.1666 46.044 27.8197C44.3909 29.4729 44.0559 31.8181 45.2957 33.0579C46.5356 34.2978 48.8808 33.9628 50.534 32.3096Z" fill="#14142B"/>
<path d="M69.1813 29.0609C69.87 27.4485 68.6855 25.3968 66.5356 24.4784C64.3856 23.56 62.0844 24.1227 61.3956 25.7352C60.7068 27.3476 61.8913 29.3993 64.0413 30.3177C66.1912 31.236 68.4925 30.6734 69.1813 29.0609Z" fill="#14142B"/>
<path d="M87.0055 96.8877C87.264 96.3963 87.4116 95.8543 87.438 95.2998C87.4643 94.7453 87.3688 94.1917 87.1581 93.6781C86.9473 93.1645 86.6265 92.7033 86.2183 92.3271C85.8101 91.9508 85.3243 91.6687 84.7952 91.5005L70.0135 60.231L63.252 64.9724L79.908 94.2184C79.6844 95.126 79.8014 96.084 80.237 96.911C80.6725 97.738 81.3963 98.3765 82.2712 98.7055C83.146 99.0346 84.1112 99.0312 84.9838 98.6962C85.8564 98.3611 86.5757 97.7177 87.0055 96.8877V96.8877Z" fill="#FFB8B8"/>
<path d="M73.4031 65.4478L65.5525 68.9583C65.3292 69.0582 65.0869 69.1087 64.8422 69.1065C64.5975 69.1043 64.3562 69.0494 64.1347 68.9456C63.9131 68.8417 63.7166 68.6913 63.5584 68.5046C63.4002 68.3179 63.2841 68.0994 63.218 67.8638L60.903 59.6086C60.3984 58.4629 60.3688 57.1639 60.8206 55.9963C61.2724 54.8288 62.1687 53.8881 63.3131 53.3804C64.4574 52.8727 65.7563 52.8395 66.9251 53.2881C68.0939 53.7366 69.0371 54.6303 69.5479 55.7733L74.1438 62.9782C74.2753 63.1845 74.3608 63.4167 74.3945 63.6591C74.4282 63.9015 74.4092 64.1482 74.3389 64.3826C74.2686 64.617 74.1486 64.8334 73.9871 65.0172C73.8256 65.2011 73.6264 65.3479 73.4031 65.4478V65.4478Z" fill="#CCCCCC"/>
<path d="M37.1462 99.9877C37.687 99.8621 38.1936 99.6195 38.6305 99.2769C39.0673 98.9344 39.4238 98.5001 39.6747 98.0049C39.9256 97.5097 40.0648 96.9655 40.0826 96.4106C40.1005 95.8557 39.9964 95.3037 39.7778 94.7934L53.7769 63.1657L45.7687 61.1487L34.5262 92.8719C33.6932 93.296 33.0448 94.0109 32.7037 94.8811C32.3626 95.7513 32.3526 96.7164 32.6756 97.5935C32.9985 98.4707 33.632 99.1988 34.456 99.6401C35.2799 100.081 36.2371 100.205 37.1462 99.9877H37.1462Z" fill="#FFB8B8"/>
<path d="M33.3301 157.315L37.4023 158.798L45.0593 143.797L39.0489 141.608L33.3301 157.315Z" fill="#FFB8B8"/>
<path d="M43.8799 165.439L31.0815 160.779L32.8819 155.834L40.7355 158.694C42.0469 159.171 43.115 160.15 43.7047 161.415C44.2943 162.68 44.3574 164.128 43.8799 165.439V165.439V165.439Z" fill="#14142B"/>
<path d="M42.9629 148.683C42.7131 148.683 42.4663 148.627 42.2404 148.521L37.5605 146.304C37.1768 146.124 36.8744 145.807 36.7129 145.415C36.5514 145.023 36.5425 144.585 36.6879 144.187L49.8957 107.611C50.005 107.308 50.1981 107.043 50.4524 106.845C50.7067 106.648 51.0119 106.526 51.3324 106.495C51.6529 106.464 51.9757 106.524 52.2633 106.669C52.5509 106.814 52.7915 107.038 52.9572 107.314L59.943 118.957C60.0984 119.216 60.1821 119.512 60.1853 119.815C60.1885 120.117 60.1112 120.415 59.9614 120.678L44.4476 147.827C44.2973 148.087 44.0809 148.304 43.8202 148.454C43.5595 148.604 43.2638 148.683 42.9629 148.683V148.683Z" fill="#14142B"/>
<path d="M58.8442 48.9497C63.6393 48.9497 67.5264 45.0626 67.5264 40.2676C67.5264 35.4726 63.6393 31.5854 58.8442 31.5854C54.0492 31.5854 50.1621 35.4726 50.1621 40.2676C50.1621 45.0626 54.0492 48.9497 58.8442 48.9497Z" fill="#FFB8B8"/>
<path d="M71.126 79.7418L55.7533 75.5142L47.5772 59.1621C47.1844 58.3765 46.9989 57.5036 47.0384 56.6262C47.0779 55.7488 47.341 54.8961 47.8028 54.1489C48.2645 53.4018 48.9096 52.7852 49.6767 52.3575C50.4438 51.9298 51.3075 51.7053 52.1858 51.7053H64.4164C65.686 51.7045 66.911 52.173 67.856 53.0208C71.1369 55.9599 78.0298 64.4332 71.1925 79.594L71.126 79.7418Z" fill="#D9DBE9"/>
<path d="M51.8828 68.8221L44.0941 65.1763C43.8725 65.0726 43.6759 64.9223 43.5176 64.7357C43.3593 64.5491 43.2431 64.3306 43.1768 64.0951C43.1106 63.8595 43.0959 63.6124 43.1338 63.3707C43.1716 63.129 43.2612 62.8982 43.3962 62.6942L48.1297 55.5456C48.6669 54.4149 49.6305 53.5434 50.8093 53.1221C51.9882 52.7007 53.2859 52.764 54.4181 53.2981C55.5504 53.8321 56.4246 54.7933 56.8493 55.9709C57.2739 57.1485 57.2143 58.4465 56.6835 59.5802L54.2358 67.7681C54.1657 68.0025 54.0459 68.219 53.8845 68.403C53.7231 68.5869 53.524 68.7339 53.3006 68.8339C53.0773 68.9339 52.8351 68.9846 52.5904 68.9826C52.3457 68.9805 52.1044 68.9258 51.8828 68.8221V68.8221Z" fill="#D9DBE9"/>
<path d="M61.3057 161.415H65.6392L67.7011 144.699L61.3047 144.699L61.3057 161.415Z" fill="#FFB8B8"/>
<path d="M73.9971 165.438L60.3768 165.439L60.3765 160.177L68.7345 160.176C70.1301 160.176 71.4687 160.731 72.4556 161.718C73.4425 162.704 73.997 164.043 73.9971 165.438V165.438Z" fill="#14142B"/>
<path d="M62.9419 155.045C62.5522 155.046 62.1743 154.912 61.8718 154.666C61.5693 154.421 61.3607 154.078 61.2813 153.697C60.0356 147.827 53.5658 117.764 48.5163 102.278C43.3785 86.5228 52.1283 79.3465 53.9345 78.068C54.1269 77.9321 54.2797 77.7476 54.3774 77.5333L55.6896 74.6466C55.8257 74.3486 56.0445 74.096 56.3201 73.9188C56.5957 73.7417 56.9164 73.6475 57.244 73.6475H57.2546C67.0918 73.7062 70.3989 76.8072 71.364 78.1378C71.5064 78.336 71.604 78.5628 71.65 78.8024C71.696 79.0421 71.6893 79.2889 71.6304 79.5257L65.4063 105.205C65.3677 105.364 65.3589 105.529 65.3805 105.692L71.5731 152.317C71.6028 152.541 71.5876 152.769 71.5284 152.987C71.4692 153.206 71.3672 153.41 71.2282 153.588C71.0893 153.766 70.9162 153.915 70.7191 154.026C70.5221 154.137 70.3049 154.207 70.0803 154.233L63.1418 155.034C63.0754 155.041 63.0087 155.045 62.9419 155.045V155.045Z" fill="#14142B"/>
<path d="M49.7207 34.8065C51.7047 36.1739 54.0595 36.9017 56.4691 36.892C55.6096 37.488 54.6311 37.8906 53.601 38.072C56.8047 38.7592 60.1158 38.7778 63.327 38.1266C64.0408 38.0122 64.7295 37.7756 65.363 37.4273C65.6787 37.251 65.9537 37.0103 66.1703 36.7207C66.3868 36.4311 66.5399 36.0992 66.6198 35.7466C66.8331 34.5276 65.8833 33.4201 64.8961 32.6737C63.3848 31.5483 61.6422 30.773 59.7944 30.4037C57.9466 30.0345 56.0398 30.0806 54.212 30.5387C53.0185 30.8472 51.8229 31.3684 51.0477 32.3269C50.2725 33.2853 50.0429 34.763 50.7815 35.7499L49.7207 34.8065Z" fill="#14142B"/>
<path d="M209.091 72.4659C211.629 72.4659 213.687 70.4085 213.687 67.8705C213.687 65.3326 211.629 63.2751 209.091 63.2751C206.554 63.2751 204.496 65.3326 204.496 67.8705C204.496 70.4085 206.554 72.4659 209.091 72.4659Z" fill="#5F2EEA"/>
<path d="M208.636 69.6234C208.533 69.6236 208.432 69.5901 208.349 69.5281L208.344 69.5243L207.264 68.6974C207.214 68.6592 207.172 68.6114 207.14 68.5568C207.108 68.5022 207.088 68.4419 207.079 68.3794C207.071 68.3168 207.075 68.2533 207.091 68.1923C207.108 68.1313 207.136 68.0741 207.174 68.024C207.213 67.9739 207.26 67.9319 207.315 67.9003C207.37 67.8688 207.43 67.8483 207.493 67.8401C207.555 67.8319 207.619 67.8361 207.68 67.8525C207.741 67.8689 207.798 67.8972 207.848 67.9357L208.547 68.4721L210.2 66.3163C210.239 66.2663 210.286 66.2243 210.341 66.1928C210.396 66.1613 210.456 66.1408 210.518 66.1325C210.581 66.1243 210.644 66.1284 210.705 66.1447C210.766 66.161 210.823 66.1891 210.873 66.2275L210.863 66.2414L210.873 66.2277C210.974 66.3052 211.04 66.4195 211.057 66.5457C211.073 66.6718 211.039 66.7993 210.962 66.9004L209.018 69.4361C208.973 69.4946 208.915 69.5418 208.849 69.5743C208.783 69.6068 208.71 69.6236 208.636 69.6234V69.6234Z" fill="white"/>
<path d="M209.091 85.8986C211.629 85.8986 213.687 83.8411 213.687 81.3032C213.687 78.7652 211.629 76.7078 209.091 76.7078C206.554 76.7078 204.496 78.7652 204.496 81.3032C204.496 83.8411 206.554 85.8986 209.091 85.8986Z" fill="#5F2EEA"/>
<path d="M208.636 83.0563C208.533 83.0565 208.432 83.023 208.349 82.961L208.344 82.9572L207.264 82.1303C207.214 82.092 207.172 82.0443 207.14 81.9897C207.108 81.9351 207.088 81.8748 207.079 81.8123C207.071 81.7497 207.075 81.6861 207.091 81.6252C207.108 81.5642 207.136 81.507 207.174 81.4569C207.213 81.4068 207.26 81.3648 207.315 81.3332C207.37 81.3017 207.43 81.2812 207.493 81.273C207.555 81.2648 207.619 81.269 207.68 81.2854C207.741 81.3018 207.798 81.3301 207.848 81.3686L208.547 81.905L210.2 79.7491C210.239 79.6991 210.286 79.6572 210.341 79.6256C210.396 79.5941 210.456 79.5737 210.518 79.5654C210.581 79.5572 210.644 79.5613 210.705 79.5776C210.766 79.5939 210.823 79.622 210.873 79.6603L210.863 79.6743L210.873 79.6605C210.974 79.7381 211.04 79.8524 211.057 79.9785C211.073 80.1046 211.039 80.2322 210.962 80.3332L209.018 82.869C208.973 82.9274 208.915 82.9747 208.849 83.0072C208.783 83.0397 208.71 83.0565 208.636 83.0563V83.0563Z" fill="white"/>
<path d="M211.566 101.452C214.104 101.452 216.161 99.3948 216.161 96.8569C216.161 94.3189 214.104 92.2615 211.566 92.2615C209.028 92.2615 206.971 94.3189 206.971 96.8569C206.971 99.3948 209.028 101.452 211.566 101.452Z" fill="#5F2EEA"/>
<path d="M211.111 98.61C211.007 98.6101 210.907 98.5767 210.824 98.5147L210.819 98.5108L209.739 97.684C209.689 97.6457 209.646 97.598 209.615 97.5434C209.583 97.4888 209.562 97.4285 209.554 97.366C209.546 97.3034 209.55 97.2398 209.566 97.1789C209.582 97.1179 209.61 97.0607 209.649 97.0106C209.687 96.9605 209.735 96.9185 209.79 96.8869C209.844 96.8554 209.905 96.8349 209.967 96.8267C210.03 96.8185 210.093 96.8227 210.154 96.8391C210.215 96.8555 210.272 96.8838 210.322 96.9223L211.022 97.4587L212.675 95.3028C212.713 95.2528 212.761 95.2109 212.816 95.1794C212.87 95.1478 212.93 95.1274 212.993 95.1191C213.055 95.1109 213.119 95.115 213.18 95.1313C213.241 95.1476 213.298 95.1757 213.348 95.214L213.337 95.228L213.348 95.2143C213.449 95.2918 213.515 95.4061 213.531 95.5322C213.548 95.6583 213.514 95.7859 213.437 95.8869L211.492 98.4227C211.447 98.4811 211.39 98.5284 211.323 98.5609C211.257 98.5934 211.184 98.6102 211.111 98.61V98.61Z" fill="white"/>
<path d="M255.879 135.225C255.831 135.225 255.801 135.223 255.791 135.223L250.085 135.223V134.382H255.811C255.944 134.387 258.648 134.463 261.141 131.439C264.854 126.933 267.904 115.776 261.343 88.2201C252.521 51.1669 259.879 18.4324 263.452 6.07841C263.628 5.46721 263.659 4.82344 263.544 4.19797C263.428 3.57251 263.169 2.98249 262.786 2.47452C262.403 1.96655 261.908 1.55455 261.338 1.27109C260.769 0.987623 260.141 0.840458 259.505 0.841213H174.302C173.654 0.842081 173.016 0.995672 172.438 1.28952C171.861 1.58338 171.361 2.00921 170.979 2.53245C169.466 4.61452 167.388 8.61435 166.089 15.8467L165.261 15.698C166.589 8.30855 168.733 4.19103 170.299 2.03791C170.759 1.40742 171.361 0.894309 172.057 0.540219C172.752 0.186129 173.521 0.00104726 174.302 2.28943e-06H259.505C260.272 -0.000735332 261.028 0.176775 261.714 0.518509C262.4 0.860243 262.997 1.35684 263.459 1.96906C263.92 2.58128 264.232 3.29235 264.371 4.0461C264.51 4.79985 264.472 5.57562 264.26 6.31212C260.705 18.602 253.386 51.1666 262.161 88.0254C268.815 115.969 265.616 127.367 261.762 132.009C259.219 135.07 256.418 135.225 255.879 135.225Z" fill="#EFF0F7"/>
<path d="M240.526 150.577C240.479 150.577 240.449 150.575 240.438 150.575L234.733 150.576V149.734H240.459C240.592 149.738 243.296 149.815 245.788 146.792C249.502 142.285 252.552 131.128 245.991 103.572C237.168 66.5189 244.527 33.7844 248.099 21.4305C248.276 20.8193 248.307 20.1755 248.191 19.55C248.076 18.9246 247.817 18.3345 247.434 17.8266C247.051 17.3186 246.555 16.9066 245.986 16.6231C245.417 16.3397 244.789 16.1925 244.153 16.1933H158.949C158.301 16.1941 157.663 16.3477 157.086 16.6416C156.508 16.9354 156.009 17.3613 155.627 17.8845C154.113 19.9666 152.036 23.9664 150.736 31.1988L149.908 31.0501C151.236 23.6606 153.381 19.5431 154.946 17.39C155.406 16.7595 156.009 16.2464 156.704 15.8923C157.4 15.5382 158.169 15.3531 158.949 15.3521H244.153C244.919 15.3513 245.676 15.5288 246.362 15.8706C247.048 16.2123 247.645 16.7089 248.106 17.3211C248.567 17.9333 248.88 18.6444 249.019 19.3982C249.158 20.1519 249.12 20.9277 248.908 21.6642C245.353 33.9541 238.033 66.5187 246.809 103.377C253.462 131.321 250.264 142.719 246.409 147.361C243.867 150.422 241.065 150.577 240.526 150.577Z" fill="#D9DBE9"/>
<path d="M231.456 118.731C222.679 81.8723 230 49.3051 233.556 37.0177C233.768 36.2812 233.805 35.5055 233.666 34.7519C233.527 33.9983 233.214 33.2874 232.753 32.6752C232.292 32.063 231.695 31.5664 231.01 31.2243C230.324 30.8823 229.568 30.7043 228.801 30.7043H143.596C142.816 30.7051 142.047 30.8899 141.352 31.2437C140.656 31.5975 140.054 32.1103 139.594 32.7405C136.155 37.4702 129.018 53.1546 136.989 96.5528C141.252 119.77 141.189 135.6 139.796 146.028C139.015 151.899 137.809 156.056 136.717 158.859L136.6 159.156C136.37 159.724 136.25 160.329 136.247 160.941C136.239 161.633 136.377 162.318 136.653 162.951C136.929 163.585 137.337 164.153 137.848 164.618C138.182 164.93 138.559 165.192 138.969 165.395C139.309 165.569 139.668 165.701 140.04 165.788C140.418 165.88 140.806 165.926 141.196 165.926H225.086C225.097 165.926 225.125 165.929 225.175 165.929C225.712 165.929 228.515 165.774 231.057 162.712C234.91 158.071 238.109 146.674 231.456 118.731ZM230.435 162.143C227.943 165.169 225.238 165.091 225.108 165.088H141.196C140.524 165.088 139.862 164.923 139.269 164.608C138.675 164.293 138.168 163.838 137.791 163.282C137.46 162.801 137.237 162.253 137.139 161.678C137.041 161.102 137.069 160.512 137.222 159.948C137.262 159.784 137.314 159.624 137.378 159.467C138.626 156.261 139.55 152.938 140.139 149.548C142.132 138.678 142.504 121.905 137.816 96.4008C129.905 53.3243 136.901 37.8767 140.273 33.2354C140.656 32.7129 141.156 32.2877 141.733 31.9942C142.31 31.7006 142.948 31.547 143.596 31.5457H228.801C229.437 31.5452 230.064 31.6925 230.633 31.976C231.202 32.2594 231.698 32.6712 232.08 33.1789C232.463 33.6866 232.722 34.2763 232.838 34.9014C232.953 35.5265 232.922 36.1699 232.747 36.7809C229.173 49.1354 221.817 81.8723 230.64 118.925C237.201 146.48 234.15 157.636 230.435 162.143Z" fill="#4E4B66"/>
<path d="M190.978 70.84H147.08C146.187 70.84 145.331 70.4855 144.7 69.8545C144.069 69.2234 143.715 68.3676 143.715 67.4752C143.715 66.5828 144.069 65.7269 144.7 65.0959C145.331 64.4649 146.187 64.1104 147.08 64.1104H190.978C191.871 64.1104 192.727 64.4649 193.358 65.0959C193.989 65.7269 194.343 66.5828 194.343 67.4752C194.343 68.3676 193.989 69.2234 193.358 69.8545C192.727 70.4855 191.871 70.84 190.978 70.84V70.84Z" fill="#D9DBE9"/>
<path d="M190.978 85.3331H147.08C146.187 85.3331 145.331 84.9786 144.7 84.3476C144.069 83.7166 143.715 82.8607 143.715 81.9683C143.715 81.0759 144.069 80.2201 144.7 79.589C145.331 78.958 146.187 78.6035 147.08 78.6035H190.978C191.871 78.6035 192.727 78.958 193.358 79.589C193.989 80.2201 194.343 81.0759 194.343 81.9683C194.343 82.8607 193.989 83.7166 193.358 84.3476C192.727 84.9786 191.871 85.3331 190.978 85.3331V85.3331Z" fill="#D9DBE9"/>
<path d="M194.514 100.18H150.615C149.722 100.18 148.867 99.8253 148.236 99.1943C147.604 98.5633 147.25 97.7074 147.25 96.815C147.25 95.9226 147.604 95.0668 148.236 94.4357C148.867 93.8047 149.722 93.4502 150.615 93.4502H194.514C195.406 93.4502 196.262 93.8047 196.893 94.4357C197.524 95.0668 197.878 95.9226 197.878 96.815C197.878 97.7074 197.524 98.5633 196.893 99.1943C196.262 99.8253 195.406 100.18 194.514 100.18V100.18Z" fill="#D9DBE9"/>
<path d="M196.988 115.733H153.089C152.197 115.733 151.341 115.379 150.71 114.748C150.079 114.117 149.725 113.261 149.725 112.368C149.725 111.476 150.079 110.62 150.71 109.989C151.341 109.358 152.197 109.004 153.089 109.004H196.988C197.881 109.004 198.736 109.358 199.367 109.989C199.998 110.62 200.353 111.476 200.353 112.368C200.353 113.261 199.998 114.117 199.367 114.748C198.736 115.379 197.881 115.733 196.988 115.733Z" fill="#D9DBE9"/>
<path d="M197.006 44.7135H165.461C165.019 44.714 164.581 44.6273 164.172 44.4584C163.764 44.2895 163.392 44.0417 163.08 43.7292C162.767 43.4167 162.519 43.0456 162.349 42.6372C162.18 42.2287 162.093 41.7909 162.093 41.3487C162.093 40.9065 162.18 40.4687 162.349 40.0603C162.519 39.6518 162.767 39.2807 163.08 38.9682C163.392 38.6557 163.764 38.4079 164.172 38.239C164.581 38.0701 165.019 37.9834 165.461 37.9839H197.006C197.899 37.9839 198.754 38.3384 199.385 38.9694C200.017 39.6004 200.371 40.4563 200.371 41.3487C200.371 42.2411 200.017 43.097 199.385 43.728C198.754 44.359 197.899 44.7135 197.006 44.7135Z" fill="#5F2EEA"/>
<path d="M214.394 116.964C216.932 116.964 218.99 114.907 218.99 112.369C218.99 109.831 216.932 107.773 214.394 107.773C211.856 107.773 209.799 109.831 209.799 112.369C209.799 114.907 211.856 116.964 214.394 116.964Z" fill="#D9DBE9"/>
<path d="M199.109 130.934H155.211C154.318 130.934 153.462 130.579 152.831 129.948C152.2 129.317 151.846 128.461 151.846 127.569C151.846 126.676 152.2 125.82 152.831 125.189C153.462 124.558 154.318 124.204 155.211 124.204H199.109C200.002 124.204 200.858 124.558 201.489 125.189C202.12 125.82 202.474 126.676 202.474 127.569C202.474 128.461 202.12 129.317 201.489 129.948C200.858 130.579 200.002 130.934 199.109 130.934Z" fill="#D9DBE9"/>
<path d="M216.515 132.164C219.053 132.164 221.111 130.107 221.111 127.569C221.111 125.031 219.053 122.973 216.515 122.973C213.977 122.973 211.92 125.031 211.92 127.569C211.92 130.107 213.977 132.164 216.515 132.164Z" fill="#D9DBE9"/>
</g>
<defs>
<clipPath id="clip0_1383_3233">
<rect width="300" height="165.944" fill="white"/>
</clipPath>
</defs>
</svg>
