<svg width="300" height="251" viewBox="0 0 300 251" fill="none" xmlns="http://www.w3.org/2000/svg">
<g clip-path="url(#clip0_1287:3479)">
<path d="M185.24 12.0227H138.365V12.6923H185.24V12.0227Z" fill="#F2F2F2"/>
<path d="M172.516 12.5249H171.847V18.7191H172.516V12.5249Z" fill="#F2F2F2"/>
<path d="M152.092 12.5249H151.423V18.7191H152.092V12.5249Z" fill="#F2F2F2"/>
<path d="M209.012 44.1655H162.137V44.8352H209.012V44.1655Z" fill="#F2F2F2"/>
<path d="M175.53 38.1388H174.86V44.333H175.53V38.1388Z" fill="#F2F2F2"/>
<path d="M195.954 38.1388H195.284V44.333H195.954V38.1388Z" fill="#F2F2F2"/>
<path d="M271.289 59.2325H224.414V59.9022H271.289V59.2325Z" fill="#F2F2F2"/>
<path d="M237.806 53.2057H237.137V59.3999H237.806V53.2057Z" fill="#F2F2F2"/>
<path d="M258.231 53.2057H257.562V59.3999H258.231V53.2057Z" fill="#F2F2F2"/>
<path d="M266.602 214.59H219.727V215.259H266.602V214.59Z" fill="#F2F2F2"/>
<path d="M233.119 208.563H232.449V214.757H233.119V208.563Z" fill="#F2F2F2"/>
<path d="M253.544 208.563H252.874V214.757H253.544V208.563Z" fill="#F2F2F2"/>
<path d="M186.579 107.112H139.704V107.782H186.579V107.112Z" fill="#F2F2F2"/>
<path d="M153.096 101.085H152.427V107.279H153.096V101.085Z" fill="#F2F2F2"/>
<path d="M173.521 101.085H172.852V107.279H173.521V101.085Z" fill="#F2F2F2"/>
<path d="M201.312 187.804H154.437V188.474H201.312V187.804Z" fill="#F2F2F2"/>
<path d="M167.829 181.777H167.159V187.971H167.829V181.777Z" fill="#F2F2F2"/>
<path d="M188.253 181.777H187.583V187.971H188.253V181.777Z" fill="#F2F2F2"/>
<path d="M276.312 163.362H229.437V164.032H276.312V163.362Z" fill="#F2F2F2"/>
<path d="M242.829 157.335H242.159V163.529H242.829V157.335Z" fill="#F2F2F2"/>
<path d="M263.254 157.335H262.584V163.529H263.254V157.335Z" fill="#F2F2F2"/>
<path d="M121.225 235.106H41.9443V234.536H120.655V206.873H48.6093L45.1094 199.582L45.6237 199.335L48.9682 206.303H121.225V235.106Z" fill="#FCFCFC"/>
<path d="M52.4967 249.08C55.8042 249.08 58.4855 246.399 58.4855 243.091C58.4855 239.784 55.8042 237.103 52.4967 237.103C49.1891 237.103 46.5078 239.784 46.5078 243.091C46.5078 246.399 49.1891 249.08 52.4967 249.08Z" fill="#3F3D56"/>
<path d="M111.529 249.08C114.836 249.08 117.518 246.399 117.518 243.091C117.518 239.784 114.836 237.103 111.529 237.103C108.221 237.103 105.54 239.784 105.54 243.091C105.54 246.399 108.221 249.08 111.529 249.08Z" fill="#3F3D56"/>
<path d="M181.114 119.607C183.161 119.607 184.821 117.947 184.821 115.899C184.821 113.852 183.161 112.192 181.114 112.192C179.066 112.192 177.406 113.852 177.406 115.899C177.406 117.947 179.066 119.607 181.114 119.607Z" fill="#3F3D56"/>
<path d="M129.705 197.462H40.5923L21.3105 134.436H149.562L149.445 134.807L129.705 197.462ZM41.0143 196.892H129.286L148.784 135.007H22.0814L41.0143 196.892Z" fill="#FCFCFC"/>
<path opacity="0.4" d="M122.749 194.182H44.4789L27.543 138.286H140.191L140.088 138.615L122.749 194.182Z" fill="#FCFCFC"/>
<path d="M151.16 128.806L150.608 128.659L154.372 114.473H176.266V115.044H154.811L151.16 128.806Z" fill="#FCFCFC"/>
<path d="M143.154 153.544H27.542V154.114H143.154V153.544Z" fill="#FCFCFC"/>
<path d="M136.533 174.557H33.9707V175.127H136.533V174.557Z" fill="#FCFCFC"/>
<path d="M85.7198 134.722H85.1494V197.177H85.7198V134.722Z" fill="#FCFCFC"/>
<path d="M111.256 134.704L107.162 197.157L107.731 197.195L111.826 134.741L111.256 134.704Z" fill="#FCFCFC"/>
<path d="M59.6249 134.703L59.0557 134.74L63.1262 197.195L63.6955 197.158L59.6249 134.703Z" fill="#FCFCFC"/>
<path d="M199.356 20.7174C199.356 20.7174 204.251 34.6481 201.239 36.7913C198.227 38.9345 211.405 56.4371 211.405 56.4371L227.218 52.1507L218.558 37.5057C218.558 37.5057 217.429 22.8606 217.429 20.7174C217.429 18.5742 199.356 20.7174 199.356 20.7174Z" fill="#A0616A"/>
<path opacity="0.1" d="M199.356 20.7174C199.356 20.7174 204.251 34.6481 201.239 36.7913C198.227 38.9345 211.405 56.4371 211.405 56.4371L227.218 52.1507L218.558 37.5057C218.558 37.5057 217.429 22.8606 217.429 20.7174C217.429 18.5742 199.356 20.7174 199.356 20.7174Z" fill="#FCFCFC"/>
<path d="M191.141 120.018C191.141 120.018 189.712 137.878 191.141 147.165C192.57 156.452 194.713 182.17 194.713 182.17C194.713 182.17 194.713 230.749 202.571 231.463C210.43 232.178 216.145 232.892 216.859 230.035C217.573 227.177 213.287 225.748 215.43 224.319C217.573 222.891 218.288 217.89 215.43 212.175C212.573 206.46 215.43 148.594 215.43 148.594L229.004 185.028C229.004 185.028 230.433 215.032 231.861 219.319C233.29 223.605 230.433 231.463 235.433 232.178C240.434 232.892 246.149 228.606 249.007 227.177C251.864 225.748 244.72 225.748 246.149 225.034C247.578 224.319 251.864 222.176 250.436 221.462C249.007 220.747 247.578 186.457 247.578 186.457C247.578 186.457 243.649 113.231 238.648 110.374C233.647 107.516 230.433 112.438 230.433 112.438L191.141 120.018Z" fill="#A0A3BD"/>
<path d="M203.999 228.606V234.321C203.999 234.321 197.57 249.857 203.999 249.857C210.429 249.857 215.429 251.467 215.429 249.323V230.035L203.999 228.606Z" fill="#6E7191"/>
<path d="M246.149 228.596V234.311C246.149 234.311 252.579 249.846 246.149 249.846C239.72 249.846 234.719 251.456 234.719 249.313V230.025L246.149 228.596Z" fill="#6E7191"/>
<path d="M209.358 31.0761C216.46 31.0761 222.217 25.3189 222.217 18.217C222.217 11.1151 216.46 5.35791 209.358 5.35791C202.256 5.35791 196.499 11.1151 196.499 18.217C196.499 25.3189 202.256 31.0761 209.358 31.0761Z" fill="#A0616A"/>
<path d="M205.429 42.1492C205.429 42.1492 209.001 52.8651 214.716 50.7219L220.431 48.5787L230.433 117.16C230.433 117.16 222.574 128.591 211.144 121.447C199.714 114.303 205.429 42.1492 205.429 42.1492Z" fill="#BCA4FF"/>
<path d="M215.43 40.0061L218.644 33.2194C218.644 33.2194 237.576 42.1493 240.433 45.0069C243.291 47.8644 243.291 52.1508 243.291 52.1508L238.29 70.0106C238.29 70.0106 239.719 109.302 239.719 110.731C239.719 112.16 244.72 120.018 241.148 117.161C237.576 114.303 236.861 111.445 234.004 115.732C231.146 120.018 224.717 125.019 224.717 125.019L215.43 40.0061Z" fill="#4E4B66"/>
<path d="M240.434 91.4423L238.291 111.445C238.291 111.445 225.432 122.876 228.289 123.59C231.147 124.304 232.576 121.447 232.576 121.447C232.576 121.447 237.576 126.448 240.434 123.59C243.292 120.732 250.436 93.5854 250.436 93.5854L240.434 91.4423Z" fill="#A0616A"/>
<path d="M209.632 0.0434836C206.781 -0.058426 203.73 -0.108837 201.327 1.42737C200.221 2.19833 199.251 3.14784 198.456 4.23704C196.115 7.19634 194.093 10.9198 194.962 14.5915L195.972 14.1976C195.972 15.1777 195.754 16.1455 195.334 17.0311C195.477 16.6176 195.953 17.2861 195.825 17.7044L194.713 21.3541C196.542 20.6837 198.817 22.0412 199.095 23.969C199.222 19.7297 199.662 14.8687 203.101 12.3864C204.835 11.1346 207.03 10.7525 209.142 10.4131C211.09 10.1001 213.132 9.80156 214.998 10.4429C216.864 11.0842 218.453 12.9926 218.03 14.9198C218.89 14.6234 219.852 15.223 220.278 16.0275C220.703 16.8321 220.725 17.7812 220.738 18.6911C221.655 19.3392 222.699 18.0522 223.073 16.9932C223.95 14.5073 224.73 11.8612 224.257 9.26782C223.784 6.67442 221.671 4.19603 219.035 4.18724C219.355 3.83579 219.526 3.37366 219.511 2.8986L217.338 2.71502C217.89 2.63691 218.397 2.36946 218.773 1.95847C217.901 2.91838 211.042 0.0939111 209.632 0.0434836Z" fill="#4E4B66"/>
<path d="M209 37.8628C209 37.8628 203.185 32.1639 201.092 32.513C198.999 32.8621 196.141 37.8628 196.141 37.8628C196.141 37.8628 178.996 43.578 179.71 49.2931C180.425 55.0083 188.283 82.8696 188.283 82.8696C188.283 82.8696 194.712 116.446 188.997 120.018C183.282 123.59 216.144 132.877 216.859 128.591C217.573 124.304 219.002 81.4408 216.859 75.0113C214.715 68.5817 209 37.8628 209 37.8628Z" fill="#4E4B66"/>
<path d="M234.005 49.2932H242.838C242.838 49.2932 249.007 76.4402 249.722 79.2977C250.436 82.1553 251.865 95.7288 251.15 95.7288C250.436 95.7288 236.148 92.8712 236.148 95.0144L234.005 49.2932Z" fill="#4E4B66"/>
<path d="M233.705 116.518H199.888C196.588 101.337 196.312 86.6697 199.888 72.6562H233.705C228.248 86.4177 227.907 100.985 233.705 116.518Z" fill="#FCFCFC"/>
<path d="M186.14 97.872L196.141 102.158C196.141 102.158 215.43 105.016 215.43 97.1576C215.43 89.2993 196.141 93.5856 196.141 93.5856L189.711 91.5298L186.14 97.872Z" fill="#A0616A"/>
<path d="M188.283 45.0067L179.711 47.1499L173.281 85.0127C173.281 85.0127 171.138 95.0142 174.71 95.7286C178.282 96.443 188.283 102.158 188.283 102.158C188.283 102.158 189.712 91.4423 192.57 91.4423L185.426 85.7271L189.712 60.7234L188.283 45.0067Z" fill="#4E4B66"/>
<path d="M67.0479 118.161H20.1729V118.831H67.0479V118.161Z" fill="#F2F2F2"/>
<path d="M33.5661 112.134H32.8965V118.328H33.5661V112.134Z" fill="#F2F2F2"/>
<path d="M53.99 112.134H53.3203V118.328H53.99V112.134Z" fill="#F2F2F2"/>
<path d="M83.4541 19.054H36.5791V19.7236H83.4541V19.054Z" fill="#F2F2F2"/>
<path d="M70.7312 19.5562H70.0615V25.7504H70.7312V19.5562Z" fill="#F2F2F2"/>
<path d="M50.3064 19.5562H49.6367V25.7504H50.3064V19.5562Z" fill="#F2F2F2"/>
<path d="M130.664 85.0138H83.7891V85.6834H130.664V85.0138Z" fill="#F2F2F2"/>
<path d="M117.941 85.516H117.271V91.7102H117.941V85.516Z" fill="#F2F2F2"/>
<path d="M97.5163 85.516H96.8467V91.7102H97.5163V85.516Z" fill="#F2F2F2"/>
<path d="M50.9766 84.679H4.10156V85.3486H50.9766V84.679Z" fill="#F2F2F2"/>
<path d="M38.2536 85.1812H37.584V91.3754H38.2536V85.1812Z" fill="#F2F2F2"/>
<path d="M17.8288 85.1812H17.1592V91.3754H17.8288V85.1812Z" fill="#F2F2F2"/>
<path d="M107.227 51.1968H60.3516V51.8664H107.227V51.1968Z" fill="#F2F2F2"/>
<path d="M73.7439 45.17H73.0742V51.3642H73.7439V45.17Z" fill="#F2F2F2"/>
<path d="M94.1687 45.17H93.499V51.3642H94.1687V45.17Z" fill="#F2F2F2"/>
</g>
<defs>
<clipPath id="clip0_1287:3479">
<rect width="300" height="250.437" fill="white"/>
</clipPath>
</defs>
</svg>
